<svg id="svg" version="1.1" xmlns="http://www.w3.org/2000/svg" xmlns:xlink="http://www.w3.org/1999/xlink" width="400" height="255.42168674698794" viewBox="0, 0, 400,255.42168674698794"><g id="svgg"><path id="path0" d="M123.244 25.198 C 117.469 25.656,114.089 26.090,112.644 26.561 C 111.731 26.859,110.020 27.222,108.842 27.368 C 107.665 27.514,106.190 27.853,105.565 28.121 C 104.939 28.389,104.293 28.610,104.130 28.614 C 103.966 28.617,103.353 28.836,102.768 29.102 C 101.587 29.638,101.617 29.350,102.428 32.375 C 102.569 32.902,102.798 34.186,102.938 35.229 C 103.077 36.271,103.414 37.880,103.685 38.804 C 103.957 39.729,104.336 41.060,104.528 41.762 C 104.951 43.312,105.267 43.404,107.710 42.690 C 108.668 42.410,110.255 42.112,111.239 42.026 C 112.222 41.941,114.680 41.688,116.701 41.464 C 120.905 40.999,124.514 41.115,126.054 41.764 C 128.015 42.592,129.202 45.100,128.383 46.685 L 127.996 47.432 121.278 47.596 C 113.093 47.796,109.590 48.204,107.989 49.142 C 107.364 49.508,106.632 49.809,106.363 49.809 C 106.095 49.810,105.473 50.064,104.981 50.373 C 104.489 50.683,103.674 51.171,103.170 51.458 C 100.836 52.786,98.084 55.124,98.084 55.777 C 98.084 55.865,97.714 56.714,97.260 57.662 C 95.786 60.749,95.918 71.098,97.469 74.015 C 97.808 74.651,98.084 75.307,98.084 75.472 C 98.084 75.852,100.152 78.017,101.674 79.229 C 104.781 81.706,106.821 82.259,113.027 82.311 C 119.768 82.367,121.248 81.879,125.544 78.185 C 128.213 75.889,128.498 75.965,128.750 79.044 C 128.835 80.088,129.054 81.121,129.235 81.340 C 129.736 81.943,148.165 81.939,148.768 81.336 C 149.262 80.842,149.376 43.105,148.890 41.252 C 148.742 40.690,148.415 39.310,148.163 38.186 C 147.143 33.635,142.697 28.000,139.667 27.416 C 139.204 27.327,138.283 26.974,137.620 26.631 C 135.815 25.699,127.451 24.865,123.244 25.198 M30.909 26.434 C 30.500 26.926,30.760 28.742,31.386 29.771 C 31.641 30.191,31.934 30.991,32.038 31.551 C 32.142 32.110,32.562 33.333,32.972 34.270 C 33.381 35.207,33.716 36.158,33.716 36.383 C 33.716 36.608,34.061 37.553,34.483 38.483 C 34.904 39.412,35.252 40.416,35.256 40.712 C 35.259 41.009,35.661 41.878,36.150 42.645 C 36.638 43.411,37.037 44.199,37.037 44.396 C 37.037 44.592,37.332 45.341,37.693 46.059 C 38.053 46.777,38.457 47.939,38.590 48.641 C 38.724 49.344,39.052 50.382,39.321 50.949 C 39.589 51.516,39.978 52.565,40.185 53.280 C 40.392 53.996,40.803 55.055,41.099 55.635 C 41.395 56.214,41.767 57.294,41.925 58.035 C 42.084 58.776,42.372 59.622,42.564 59.916 C 42.756 60.209,43.130 61.274,43.394 62.281 C 43.659 63.289,44.059 64.393,44.283 64.735 C 44.507 65.077,44.812 65.898,44.960 66.560 C 45.108 67.221,45.513 68.381,45.859 69.138 C 46.205 69.894,46.488 70.677,46.488 70.877 C 46.488 71.366,46.996 72.480,47.699 73.535 C 48.016 74.011,48.276 74.598,48.276 74.840 C 48.276 75.082,48.621 75.925,49.042 76.715 C 49.464 77.505,49.809 78.470,49.809 78.859 C 49.811 79.714,50.608 81.089,51.325 81.473 C 51.686 81.666,55.315 81.730,63.111 81.681 L 74.375 81.609 74.843 81.032 C 75.100 80.714,75.439 79.853,75.596 79.119 C 75.754 78.385,76.048 77.532,76.250 77.224 C 76.451 76.916,76.846 75.835,77.127 74.821 C 77.408 73.807,77.799 72.794,77.995 72.568 C 78.192 72.343,78.506 71.526,78.693 70.754 C 78.881 69.981,79.286 68.946,79.593 68.455 C 79.900 67.963,80.294 67.101,80.469 66.539 C 80.643 65.977,80.982 65.230,81.222 64.879 C 81.462 64.527,81.854 63.448,82.093 62.481 C 82.331 61.513,82.681 60.421,82.869 60.054 C 83.057 59.687,83.398 58.657,83.625 57.764 C 83.853 56.871,84.246 55.837,84.499 55.465 C 84.752 55.093,85.112 54.162,85.301 53.395 C 85.489 52.628,85.913 51.462,86.244 50.804 C 86.575 50.145,86.846 49.278,86.846 48.877 C 86.847 48.476,87.191 47.458,87.612 46.616 C 88.032 45.773,88.377 44.902,88.377 44.680 C 88.378 44.458,88.712 43.768,89.121 43.147 C 89.530 42.526,89.999 41.501,90.164 40.868 C 90.328 40.236,90.616 39.480,90.802 39.188 C 90.989 38.896,91.338 37.874,91.579 36.916 C 91.819 35.958,92.224 34.817,92.479 34.381 C 92.734 33.945,93.085 33.014,93.259 32.312 C 93.433 31.609,93.843 30.428,94.170 29.686 C 94.819 28.213,94.937 26.840,94.457 26.360 C 93.814 25.717,74.074 25.962,74.074 26.613 C 74.074 26.750,73.739 27.628,73.330 28.565 C 72.920 29.502,72.461 30.949,72.309 31.781 C 72.156 32.613,71.858 33.559,71.645 33.883 C 71.433 34.208,71.044 35.375,70.780 36.477 C 70.517 37.579,70.131 38.817,69.923 39.228 C 69.715 39.638,69.397 40.607,69.216 41.379 C 68.767 43.294,68.486 43.678,67.530 43.678 C 66.531 43.678,66.269 43.991,65.807 45.736 C 65.605 46.501,65.216 47.644,64.944 48.276 C 64.671 48.908,64.374 49.975,64.284 50.647 C 64.194 51.318,63.831 52.500,63.478 53.272 C 63.124 54.045,62.832 54.874,62.829 55.116 C 62.825 55.358,62.612 56.015,62.355 56.577 L 61.889 57.599 61.468 56.610 C 61.237 56.066,61.047 55.417,61.047 55.168 C 61.047 54.919,60.715 53.927,60.308 52.964 C 59.902 52.001,59.489 50.581,59.390 49.808 C 59.292 49.036,59.003 48.042,58.749 47.600 C 58.494 47.158,58.143 46.155,57.967 45.371 C 57.792 44.587,57.446 43.729,57.200 43.464 C 56.953 43.200,56.550 42.249,56.305 41.351 C 56.059 40.453,55.665 39.317,55.430 38.825 C 55.194 38.333,54.854 37.241,54.674 36.398 C 54.493 35.556,54.133 34.446,53.872 33.932 C 53.612 33.419,53.222 32.143,53.006 31.098 C 52.635 29.302,51.822 27.325,51.094 26.447 C 50.610 25.864,31.393 25.851,30.909 26.434 M233.821 26.245 L 169.174 26.310 168.878 27.297 C 168.663 28.016,168.582 35.206,168.582 53.779 C 168.582 79.555,168.618 80.660,169.475 81.286 C 169.616 81.389,198.651 81.475,233.996 81.478 C 295.927 81.481,298.276 81.498,298.683 81.949 C 299.072 82.379,299.106 85.304,299.106 118.827 C 299.106 152.381,299.139 155.265,299.528 155.588 C 300.178 156.127,342.861 156.242,343.678 155.707 L 344.239 155.339 344.427 91.521 C 344.625 23.934,344.664 26.531,343.455 26.206 C 343.156 26.126,332.912 26.088,320.690 26.120 C 308.467 26.153,269.376 26.210,233.821 26.245 M128.215 58.030 C 128.822 58.682,128.986 63.168,128.440 64.188 C 127.419 66.094,123.064 67.709,119.979 67.323 C 114.088 66.587,113.779 58.267,119.622 57.702 C 123.842 57.294,127.665 57.440,128.215 58.030 " stroke="none" fill="#ef524a" fill-rule="evenodd"></path><path id="path1" d="M184.930 100.605 C 184.579 100.715,182.912 100.952,181.226 101.130 C 179.540 101.308,177.471 101.664,176.628 101.920 C 175.192 102.357,174.051 102.590,170.626 103.150 C 167.761 103.618,164.862 104.874,164.912 105.625 C 164.987 106.735,165.994 112.141,166.529 114.304 C 167.280 117.334,167.565 117.890,168.345 117.841 C 170.420 117.711,176.498 116.902,178.633 116.472 C 186.042 114.977,190.508 116.247,191.322 120.080 C 192.007 123.310,191.873 123.369,183.826 123.383 C 176.030 123.396,172.279 123.762,169.879 124.744 C 168.977 125.113,168.087 125.415,167.902 125.415 C 166.887 125.415,160.920 130.323,160.920 131.159 C 160.920 131.266,160.528 132.230,160.050 133.301 C 158.456 136.870,158.526 145.294,160.179 148.787 C 161.859 152.338,164.747 155.321,167.209 156.048 C 167.870 156.243,168.766 156.581,169.199 156.798 C 171.120 157.760,180.485 157.739,182.634 156.767 C 183.124 156.546,183.985 156.214,184.547 156.031 C 185.879 155.597,188.531 153.734,189.607 152.477 C 190.802 151.081,191.571 151.546,191.571 153.667 C 191.571 154.855,191.674 155.165,192.247 155.695 L 192.923 156.322 202.215 156.322 L 211.507 156.322 211.768 155.636 C 212.344 154.119,211.936 116.531,211.327 115.070 C 211.034 114.368,210.653 113.024,210.480 112.083 C 210.296 111.088,209.908 110.026,209.552 109.543 C 209.216 109.086,208.940 108.578,208.940 108.413 C 208.940 107.963,205.249 104.215,204.806 104.215 C 204.594 104.215,204.215 103.987,203.964 103.709 C 203.712 103.430,203.091 103.127,202.583 103.034 C 202.076 102.940,200.939 102.536,200.057 102.135 C 199.176 101.733,198.199 101.403,197.886 101.400 C 197.574 101.397,196.398 101.211,195.275 100.987 C 193.052 100.543,185.961 100.281,184.930 100.605 M262.045 100.492 C 261.986 100.552,260.731 100.798,259.257 101.040 C 257.783 101.281,256.117 101.686,255.556 101.938 C 254.994 102.191,253.902 102.598,253.129 102.844 C 252.356 103.089,251.568 103.444,251.378 103.633 C 251.188 103.822,250.556 104.217,249.973 104.513 C 249.391 104.808,248.857 105.133,248.787 105.235 C 248.716 105.337,248.314 105.598,247.893 105.814 C 247.471 106.031,246.678 106.566,246.129 107.003 C 244.619 108.206,244.189 107.698,244.189 104.714 C 244.189 101.084,245.073 101.361,233.791 101.454 C 226.421 101.515,224.216 101.607,223.959 101.865 C 223.504 102.320,223.331 154.533,223.781 155.619 L 224.072 156.322 233.866 156.322 C 243.288 156.322,243.670 156.303,243.925 155.828 C 244.098 155.504,244.194 150.230,244.203 140.566 C 244.214 129.778,244.300 125.580,244.523 124.989 C 244.893 124.005,248.741 120.637,249.745 120.418 C 250.131 120.334,250.758 120.147,251.139 120.004 C 251.979 119.687,254.601 119.688,255.007 120.007 C 255.168 120.133,255.595 120.306,255.956 120.392 C 257.988 120.876,258.238 123.031,258.238 140.117 C 258.238 153.445,258.282 155.131,258.650 155.692 L 259.063 156.322 268.321 156.322 L 277.580 156.322 278.268 155.634 L 278.955 154.947 278.844 137.052 C 278.780 126.811,278.615 118.119,278.459 116.731 C 278.308 115.396,278.080 113.362,277.951 112.212 C 277.822 111.055,277.491 109.684,277.212 109.147 C 276.934 108.611,276.570 107.756,276.402 107.246 C 275.639 104.921,270.761 101.666,267.286 101.164 C 266.173 101.002,264.639 100.761,263.878 100.627 C 262.307 100.350,262.195 100.342,262.045 100.492 M95.416 101.893 C 95.095 102.413,95.219 104.148,95.622 104.762 C 95.856 105.121,96.214 106.047,96.415 106.822 C 96.617 107.596,97.009 108.619,97.286 109.096 C 97.563 109.572,97.908 110.612,98.052 111.407 C 98.196 112.202,98.552 113.294,98.843 113.834 C 99.133 114.373,99.495 115.271,99.647 115.830 C 99.799 116.388,100.194 117.167,100.526 117.561 C 100.858 117.956,101.209 118.706,101.307 119.228 C 101.405 119.751,101.681 120.528,101.921 120.954 C 102.161 121.381,102.555 122.530,102.799 123.509 C 103.042 124.487,103.443 125.632,103.691 126.054 C 103.938 126.475,104.290 127.395,104.473 128.097 C 104.656 128.799,105.003 129.777,105.245 130.268 C 105.487 130.760,105.817 131.794,105.980 132.567 C 106.143 133.340,106.540 134.489,106.864 135.121 C 107.187 135.754,107.605 136.845,107.793 137.548 C 107.981 138.250,108.278 139.055,108.452 139.336 C 108.626 139.617,108.943 140.446,109.157 141.177 C 109.370 141.909,109.840 143.011,110.200 143.626 C 110.561 144.241,110.856 144.878,110.856 145.041 C 110.856 145.204,111.190 146.056,111.598 146.934 C 112.006 147.813,112.424 148.934,112.526 149.425 C 112.627 149.917,112.970 150.894,113.287 151.596 C 113.604 152.299,113.943 153.276,114.039 153.768 C 114.566 156.453,113.916 156.322,126.648 156.322 C 135.357 156.322,137.411 156.257,137.645 155.975 C 137.920 155.645,138.235 154.826,139.612 150.877 C 139.946 149.920,140.435 148.828,140.700 148.451 C 140.964 148.074,141.324 147.305,141.500 146.743 C 141.675 146.181,142.025 145.359,142.278 144.916 C 142.531 144.473,142.876 143.439,143.046 142.617 C 143.215 141.796,143.581 140.677,143.859 140.131 C 144.136 139.585,144.519 138.538,144.710 137.804 C 144.901 137.071,145.285 136.081,145.563 135.604 C 145.840 135.128,146.150 134.278,146.251 133.716 C 146.351 133.155,146.692 132.120,147.007 131.418 C 147.322 130.715,147.660 129.738,147.758 129.246 C 148.004 128.004,148.474 126.692,148.672 126.692 C 148.764 126.692,149.045 125.916,149.297 124.968 C 149.548 124.020,149.921 122.913,150.124 122.509 C 150.328 122.104,150.665 121.197,150.875 120.492 C 151.084 119.787,151.521 118.796,151.846 118.290 C 152.171 117.783,152.579 116.919,152.753 116.368 C 152.927 115.818,153.273 115.013,153.522 114.580 C 153.772 114.147,154.120 113.103,154.297 112.261 C 154.474 111.418,154.840 110.281,155.110 109.735 C 155.381 109.189,155.760 108.135,155.953 107.392 C 156.147 106.650,156.538 105.660,156.823 105.193 C 157.472 104.128,157.544 102.047,156.940 101.815 C 156.717 101.730,152.190 101.660,146.879 101.660 L 137.223 101.660 136.839 102.490 C 135.410 105.577,135.149 106.253,134.990 107.280 C 134.892 107.912,134.603 108.831,134.348 109.323 C 133.714 110.547,133.333 111.810,133.333 112.690 C 133.333 113.095,133.048 113.989,132.700 114.677 C 132.352 115.364,131.945 116.469,131.797 117.132 C 131.648 117.796,131.305 118.650,131.034 119.030 C 130.763 119.411,130.411 120.284,130.252 120.972 C 130.093 121.660,129.749 122.682,129.486 123.244 C 129.224 123.806,128.818 125.121,128.585 126.166 C 128.352 127.211,127.946 128.450,127.682 128.919 C 127.419 129.389,127.203 129.967,127.203 130.204 C 127.203 130.784,126.413 132.822,126.188 132.822 C 125.901 132.822,125.416 131.585,125.407 130.831 C 125.402 130.451,125.164 129.508,124.879 128.736 C 124.593 127.963,124.078 126.306,123.734 125.054 C 123.390 123.801,123.006 122.652,122.880 122.500 C 122.754 122.347,122.485 121.418,122.282 120.434 C 122.079 119.451,121.609 117.982,121.237 117.170 C 120.866 116.358,120.562 115.483,120.562 115.226 C 120.562 114.969,120.226 114.129,119.815 113.359 C 119.404 112.589,118.987 111.510,118.888 110.960 C 118.788 110.411,118.489 109.502,118.221 108.940 C 117.954 108.378,117.562 107.174,117.351 106.264 C 116.975 104.645,116.108 102.862,115.307 102.061 C 114.847 101.601,95.697 101.439,95.416 101.893 M191.003 133.476 C 191.527 133.843,191.571 134.075,191.571 136.510 L 191.571 139.147 190.442 140.072 C 186.130 143.605,182.907 143.818,179.412 140.800 C 177.230 138.917,178.215 134.072,180.900 133.472 C 183.127 132.974,190.291 132.976,191.003 133.476 " stroke="none" fill="#04ccfc" fill-rule="evenodd"></path><path id="path2" d="M30.692 102.566 C 30.163 103.729,30.277 224.613,30.808 225.424 L 31.221 226.054 115.735 226.054 L 200.249 226.054 200.635 225.128 C 201.098 224.020,201.230 178.869,200.773 177.669 L 200.525 177.016 137.722 176.950 C 84.938 176.894,74.851 176.828,74.496 176.533 C 74.107 176.210,74.074 173.335,74.074 139.854 C 74.074 114.135,73.992 103.290,73.794 102.720 L 73.513 101.916 52.251 101.916 L 30.989 101.916 30.692 102.566 " stroke="none" fill="#62db0d" fill-rule="evenodd"></path><path id="path3" d="M310.409 25.990 C 316.414 26.028,326.242 26.028,332.248 25.990 C 338.254 25.952,333.340 25.920,321.328 25.920 C 309.317 25.920,304.403 25.952,310.409 25.990 M201.448 26.245 C 219.173 26.281,248.254 26.281,266.071 26.245 C 283.889 26.209,269.387 26.179,233.844 26.179 C 198.301 26.179,183.723 26.209,201.448 26.245 M344.215 26.692 C 344.343 26.977,344.503 39.329,344.576 54.662 L 344.708 82.120 344.704 54.483 C 344.700 31.153,344.644 26.794,344.343 26.513 C 344.043 26.234,344.022 26.262,344.215 26.692 M169.516 81.545 C 169.581 81.651,198.586 81.737,233.972 81.737 L 298.311 81.737 298.708 82.305 C 298.927 82.617,299.106 82.750,299.106 82.600 C 299.106 81.421,302.849 81.488,233.786 81.419 C 198.372 81.383,169.451 81.440,169.516 81.545 M344.380 118.914 C 344.339 142.547,344.228 155.305,344.062 155.505 C 343.917 155.680,343.973 155.671,344.191 155.483 C 344.529 155.191,344.566 150.860,344.508 118.892 L 344.443 82.631 344.380 118.914 M41.718 101.852 C 47.593 101.890,57.134 101.890,62.918 101.852 C 68.703 101.813,63.895 101.782,52.235 101.782 C 40.575 101.782,35.842 101.814,41.718 101.852 M30.266 164.112 C 30.266 197.548,30.296 211.264,30.332 194.593 C 30.368 177.921,30.368 150.565,30.332 133.801 C 30.296 117.037,30.266 130.677,30.266 164.112 M299.434 155.736 C 299.919 156.223,342.851 156.612,343.329 156.135 C 343.437 156.027,333.861 155.969,322.050 156.005 C 303.050 156.064,300.483 156.026,299.777 155.675 C 299.009 155.293,298.996 155.296,299.434 155.736 M311.494 174.708 C 310.511 174.828,308.636 175.053,307.328 175.207 C 306.020 175.361,304.689 175.658,304.370 175.867 C 304.052 176.076,303.191 176.425,302.457 176.643 C 301.724 176.861,300.590 177.377,299.937 177.791 C 299.285 178.205,298.645 178.544,298.515 178.544 C 298.385 178.544,297.899 178.860,297.433 179.246 C 296.967 179.633,296.054 180.351,295.404 180.843 C 294.754 181.335,294.031 182.053,293.799 182.439 C 293.567 182.826,293.288 183.142,293.179 183.142 C 292.839 183.142,290.684 186.575,289.573 188.889 C 286.364 195.571,286.362 210.516,289.569 217.241 C 292.562 223.518,298.755 228.730,304.725 229.997 C 305.639 230.190,307.133 230.561,308.046 230.819 C 309.450 231.217,310.652 231.290,315.837 231.290 L 321.967 231.290 325.415 230.419 C 327.312 229.939,329.496 229.233,330.268 228.850 C 331.041 228.466,331.932 228.074,332.248 227.980 C 332.564 227.885,332.822 227.718,332.822 227.610 C 332.822 227.501,333.394 227.101,334.092 226.721 C 335.872 225.752,340.161 221.321,340.706 219.887 C 340.839 219.537,341.246 218.812,341.611 218.274 C 341.975 217.737,342.273 217.129,342.273 216.924 C 342.273 216.718,342.560 215.978,342.911 215.280 C 344.050 213.012,345.042 204.354,344.615 200.414 C 343.975 194.513,343.548 192.119,342.911 190.850 C 342.560 190.152,342.273 189.364,342.273 189.099 C 342.273 188.833,341.871 187.991,341.379 187.228 C 340.887 186.464,340.419 185.634,340.340 185.384 C 340.260 185.134,340.098 184.930,339.978 184.930 C 339.859 184.930,339.527 184.551,339.241 184.088 C 338.784 183.350,338.217 182.600,337.461 181.737 C 336.988 181.196,335.885 180.344,335.198 179.989 C 334.804 179.785,334.263 179.376,333.996 179.081 C 333.728 178.786,333.378 178.544,333.218 178.544 C 333.058 178.544,332.300 178.145,331.534 177.657 C 330.767 177.168,329.738 176.696,329.246 176.607 C 328.755 176.517,327.978 176.230,327.521 175.969 C 325.854 175.018,315.581 174.209,311.494 174.708 M221.584 175.451 C 220.362 175.637,220.250 176.451,221.175 178.419 C 221.470 179.047,221.711 179.718,221.711 179.910 C 221.711 180.103,221.994 180.677,222.338 181.185 C 222.683 181.693,223.143 182.705,223.359 183.435 C 223.576 184.165,223.910 185.000,224.101 185.293 C 224.292 185.585,224.645 186.501,224.885 187.328 C 225.126 188.156,225.491 189.090,225.697 189.405 C 225.903 189.719,226.296 190.709,226.570 191.604 C 227.549 194.802,228.594 197.697,228.984 198.294 C 229.203 198.627,229.558 199.579,229.774 200.408 C 229.990 201.237,230.316 202.146,230.499 202.427 C 230.682 202.708,231.006 203.629,231.220 204.475 C 231.434 205.321,231.855 206.470,232.157 207.029 C 232.458 207.588,232.822 208.477,232.965 209.003 C 233.108 209.529,233.445 210.165,233.715 210.416 C 233.984 210.667,234.381 211.547,234.596 212.372 C 234.810 213.197,235.152 214.125,235.355 214.435 C 235.559 214.745,235.922 215.676,236.162 216.503 C 236.402 217.331,236.755 218.247,236.947 218.539 C 237.138 218.831,237.479 219.693,237.705 220.455 C 237.930 221.216,238.332 222.266,238.598 222.787 C 239.117 223.807,239.271 226.309,238.813 226.309 C 238.667 226.309,238.236 226.622,237.856 227.005 C 236.780 228.088,235.082 229.152,232.043 230.650 C 230.505 231.407,229.189 232.097,229.119 232.184 C 229.049 232.270,228.445 232.593,227.778 232.902 C 226.238 233.615,226.087 234.956,227.286 237.292 C 227.683 238.065,228.161 239.186,228.349 239.783 C 228.536 240.380,228.772 240.868,228.873 240.868 C 229.101 240.868,229.540 241.985,229.774 243.160 C 229.871 243.648,230.281 244.697,230.684 245.491 C 231.088 246.285,231.421 247.150,231.426 247.413 C 231.454 249.078,234.207 249.485,236.691 248.193 C 237.414 247.817,238.186 247.510,238.407 247.510 C 238.811 247.510,240.529 246.642,240.983 246.208 C 241.117 246.081,241.404 245.976,241.622 245.976 C 242.240 245.974,245.473 244.236,246.530 243.338 C 247.874 242.196,248.813 241.509,249.553 241.128 C 249.904 240.947,250.479 240.534,250.830 240.211 C 252.086 239.054,253.274 238.123,254.369 237.437 C 255.780 236.555,257.374 234.964,258.485 233.330 C 258.962 232.630,259.850 231.467,260.460 230.746 C 261.572 229.430,262.294 228.478,263.436 226.820 C 263.775 226.328,264.296 225.650,264.593 225.312 C 264.891 224.975,265.134 224.593,265.134 224.464 C 265.134 224.335,265.479 223.729,265.900 223.116 C 266.322 222.504,266.667 221.902,266.667 221.779 C 266.667 221.656,266.996 221.037,267.398 220.403 C 267.800 219.769,268.266 218.834,268.434 218.326 C 268.602 217.817,268.945 217.135,269.197 216.810 C 269.448 216.485,269.860 215.559,270.111 214.751 C 270.362 213.943,270.652 213.282,270.755 213.282 C 270.858 213.282,271.140 212.564,271.382 211.686 C 271.624 210.808,272.083 209.630,272.402 209.068 C 272.722 208.506,273.120 207.624,273.286 207.109 C 273.453 206.593,273.756 206.033,273.959 205.865 C 274.162 205.696,274.563 204.797,274.850 203.868 C 275.137 202.938,275.520 201.946,275.700 201.663 C 275.881 201.381,276.173 200.575,276.350 199.872 C 276.526 199.170,276.903 198.099,277.187 197.492 C 277.471 196.885,277.867 195.678,278.067 194.810 C 278.267 193.942,278.655 192.749,278.929 192.160 C 279.203 191.570,279.506 190.593,279.603 189.988 C 279.699 189.384,280.103 188.199,280.502 187.356 C 280.900 186.513,281.226 185.566,281.226 185.252 C 281.226 184.937,281.460 184.075,281.747 183.336 C 282.204 182.156,282.640 180.604,283.555 176.906 C 283.974 175.209,283.590 175.155,271.750 175.267 C 261.781 175.362,262.317 175.245,261.826 177.437 C 261.648 178.236,261.301 179.358,261.056 179.930 C 260.811 180.502,260.474 181.775,260.307 182.759 C 260.140 183.742,259.737 185.294,259.411 186.207 C 259.084 187.120,258.674 188.478,258.500 189.225 C 258.325 189.971,258.010 190.927,257.799 191.349 C 257.589 191.771,257.247 192.941,257.039 193.951 C 256.832 194.960,256.452 196.130,256.196 196.552 C 255.940 196.973,255.605 197.788,255.452 198.362 C 255.300 198.937,254.885 199.741,254.531 200.150 C 254.177 200.559,253.817 201.323,253.732 201.847 C 253.529 203.089,253.183 203.526,252.172 203.814 C 251.231 204.082,251.374 204.362,250.684 200.907 C 250.460 199.790,250.072 198.468,249.821 197.969 C 249.570 197.471,249.182 196.330,248.958 195.436 C 248.733 194.541,248.376 193.543,248.163 193.219 C 247.951 192.894,247.702 192.132,247.611 191.525 C 247.520 190.918,247.161 189.847,246.813 189.144 C 246.464 188.442,246.017 187.248,245.817 186.492 C 245.618 185.736,245.288 184.817,245.084 184.449 C 244.880 184.081,244.533 183.132,244.313 182.339 C 244.093 181.546,243.693 180.643,243.423 180.332 C 243.153 180.021,242.752 179.145,242.531 178.385 C 242.284 177.538,241.795 176.660,241.265 176.114 L 240.400 175.223 231.503 175.260 C 226.609 175.280,222.146 175.366,221.584 175.451 M106.705 176.948 C 123.879 176.984,151.983 176.984,169.157 176.948 C 186.331 176.911,172.280 176.882,137.931 176.882 C 103.582 176.882,89.531 176.911,106.705 176.948 M318.871 190.979 C 319.933 191.226,320.792 191.587,321.042 191.893 C 321.270 192.171,321.705 192.644,322.009 192.943 C 322.313 193.242,322.742 194.105,322.963 194.860 C 323.183 195.616,323.460 196.363,323.578 196.521 C 324.442 197.672,324.763 205.915,324.033 208.197 C 322.589 212.715,320.762 214.881,318.115 215.212 C 312.586 215.902,309.409 214.163,308.295 209.834 C 308.115 209.132,307.873 208.434,307.759 208.285 C 307.067 207.379,307.005 199.276,307.682 198.181 C 307.758 198.059,308.083 197.053,308.405 195.945 C 309.462 192.307,310.537 191.422,315.070 190.457 C 315.691 190.325,316.567 190.445,318.871 190.979 M200.554 225.274 L 200.282 226.054 115.753 226.054 L 31.225 226.054 30.824 225.479 C 30.603 225.163,30.417 225.030,30.409 225.184 C 30.352 226.382,24.932 226.315,115.854 226.246 L 200.376 226.181 200.722 225.460 C 200.912 225.063,201.014 224.683,200.947 224.616 C 200.880 224.550,200.703 224.846,200.554 225.274 " stroke="none" fill="#f6c119" fill-rule="evenodd"></path><path id="path4" d="M0.000 127.714 L 0.000 255.428 200.000 255.428 L 400.000 255.428 400.000 127.714 L 400.000 0.000 200.000 0.000 L 0.000 0.000 0.000 127.714 M133.661 25.673 C 135.572 25.906,136.783 26.199,137.620 26.631 C 138.283 26.974,139.204 27.327,139.667 27.416 C 142.697 28.000,147.143 33.635,148.163 38.186 C 148.415 39.310,148.742 40.690,148.890 41.252 C 149.376 43.105,149.262 80.842,148.768 81.336 C 148.165 81.939,129.736 81.943,129.235 81.340 C 129.054 81.121,128.835 80.088,128.750 79.044 C 128.498 75.965,128.213 75.889,125.544 78.185 C 121.248 81.879,119.768 82.367,113.027 82.311 C 106.821 82.259,104.781 81.706,101.674 79.229 C 100.152 78.017,98.084 75.852,98.084 75.472 C 98.084 75.307,97.808 74.651,97.469 74.015 C 95.918 71.098,95.786 60.749,97.260 57.662 C 97.714 56.714,98.084 55.865,98.084 55.777 C 98.084 55.124,100.836 52.786,103.170 51.458 C 103.674 51.171,104.489 50.683,104.981 50.373 C 105.473 50.064,106.095 49.810,106.363 49.809 C 106.632 49.809,107.364 49.508,107.989 49.142 C 109.590 48.204,113.093 47.796,121.278 47.596 L 127.996 47.432 128.383 46.685 C 129.202 45.100,128.015 42.592,126.054 41.764 C 124.514 41.115,120.905 40.999,116.701 41.464 C 114.680 41.688,112.222 41.941,111.239 42.026 C 110.255 42.112,108.668 42.410,107.710 42.690 C 105.267 43.404,104.951 43.312,104.528 41.762 C 104.336 41.060,103.957 39.729,103.685 38.804 C 103.414 37.880,103.077 36.271,102.938 35.229 C 102.798 34.186,102.569 32.902,102.428 32.375 C 101.617 29.350,101.587 29.638,102.768 29.102 C 103.353 28.836,103.966 28.617,104.130 28.614 C 104.293 28.610,104.939 28.389,105.565 28.121 C 106.190 27.853,107.665 27.514,108.842 27.368 C 110.020 27.222,111.731 26.859,112.644 26.561 C 114.089 26.090,117.469 25.656,123.244 25.198 C 125.153 25.047,130.540 25.293,133.661 25.673 M343.617 26.172 C 344.939 26.725,344.881 23.157,344.680 91.641 L 344.494 155.321 343.785 155.826 C 342.862 156.483,300.319 156.500,299.528 155.844 C 299.139 155.521,299.106 152.644,299.106 119.183 C 299.106 86.732,299.064 82.812,298.708 82.305 L 298.311 81.737 233.997 81.737 L 169.683 81.737 169.197 81.199 C 168.573 80.511,168.298 28.025,168.911 26.820 L 169.236 26.181 234.490 26.053 C 270.380 25.982,309.414 25.896,321.233 25.861 C 339.625 25.807,342.851 25.852,343.617 26.172 M51.094 26.447 C 51.822 27.325,52.635 29.302,53.006 31.098 C 53.222 32.143,53.612 33.419,53.872 33.932 C 54.133 34.446,54.493 35.556,54.674 36.398 C 54.854 37.241,55.194 38.333,55.430 38.825 C 55.665 39.317,56.059 40.453,56.305 41.351 C 56.550 42.249,56.953 43.200,57.200 43.464 C 57.446 43.729,57.792 44.587,57.967 45.371 C 58.143 46.155,58.494 47.158,58.749 47.600 C 59.003 48.042,59.292 49.036,59.390 49.808 C 59.489 50.581,59.902 52.001,60.308 52.964 C 60.715 53.927,61.047 54.919,61.047 55.168 C 61.047 55.417,61.237 56.066,61.468 56.610 L 61.889 57.599 62.355 56.577 C 62.612 56.015,62.825 55.358,62.829 55.116 C 62.832 54.874,63.124 54.045,63.478 53.272 C 63.831 52.500,64.194 51.318,64.284 50.647 C 64.374 49.975,64.671 48.908,64.944 48.276 C 65.216 47.644,65.605 46.501,65.807 45.736 C 66.269 43.991,66.531 43.678,67.530 43.678 C 68.486 43.678,68.767 43.294,69.216 41.379 C 69.397 40.607,69.715 39.638,69.923 39.228 C 70.131 38.817,70.517 37.579,70.780 36.477 C 71.044 35.375,71.433 34.208,71.645 33.883 C 71.858 33.559,72.156 32.613,72.309 31.781 C 72.461 30.949,72.920 29.502,73.330 28.565 C 73.739 27.628,74.074 26.750,74.074 26.613 C 74.074 25.962,93.814 25.717,94.457 26.360 C 94.937 26.840,94.819 28.213,94.170 29.686 C 93.843 30.428,93.433 31.609,93.259 32.312 C 93.085 33.014,92.734 33.945,92.479 34.381 C 92.224 34.817,91.819 35.958,91.579 36.916 C 91.338 37.874,90.989 38.896,90.802 39.188 C 90.616 39.480,90.328 40.236,90.164 40.868 C 89.999 41.501,89.530 42.526,89.121 43.147 C 88.712 43.768,88.378 44.458,88.377 44.680 C 88.377 44.902,88.032 45.773,87.612 46.616 C 87.191 47.458,86.847 48.476,86.846 48.877 C 86.846 49.278,86.575 50.145,86.244 50.804 C 85.913 51.462,85.489 52.628,85.301 53.395 C 85.112 54.162,84.752 55.093,84.499 55.465 C 84.246 55.837,83.853 56.871,83.625 57.764 C 83.398 58.657,83.057 59.687,82.869 60.054 C 82.681 60.421,82.331 61.513,82.093 62.481 C 81.854 63.448,81.462 64.527,81.222 64.879 C 80.982 65.230,80.643 65.977,80.469 66.539 C 80.294 67.101,79.900 67.963,79.593 68.455 C 79.286 68.946,78.881 69.981,78.693 70.754 C 78.506 71.526,78.192 72.343,77.995 72.568 C 77.799 72.794,77.408 73.807,77.127 74.821 C 76.846 75.835,76.451 76.916,76.250 77.224 C 76.048 77.532,75.754 78.385,75.596 79.119 C 75.439 79.853,75.100 80.714,74.843 81.032 L 74.375 81.609 63.111 81.681 C 55.315 81.730,51.686 81.666,51.325 81.473 C 50.608 81.089,49.811 79.714,49.809 78.859 C 49.809 78.470,49.464 77.505,49.042 76.715 C 48.621 75.925,48.276 75.082,48.276 74.840 C 48.276 74.598,48.016 74.011,47.699 73.535 C 46.996 72.480,46.488 71.366,46.488 70.877 C 46.488 70.677,46.205 69.894,45.859 69.138 C 45.513 68.381,45.108 67.221,44.960 66.560 C 44.812 65.898,44.507 65.077,44.283 64.735 C 44.059 64.393,43.659 63.289,43.394 62.281 C 43.130 61.274,42.756 60.209,42.564 59.916 C 42.372 59.622,42.084 58.776,41.925 58.035 C 41.767 57.294,41.395 56.214,41.099 55.635 C 40.803 55.055,40.392 53.996,40.185 53.280 C 39.978 52.565,39.589 51.516,39.321 50.949 C 39.052 50.382,38.724 49.344,38.590 48.641 C 38.457 47.939,38.053 46.777,37.693 46.059 C 37.332 45.341,37.037 44.592,37.037 44.396 C 37.037 44.199,36.638 43.411,36.150 42.645 C 35.661 41.878,35.259 41.009,35.256 40.712 C 35.252 40.416,34.904 39.412,34.483 38.483 C 34.061 37.553,33.716 36.608,33.716 36.383 C 33.716 36.158,33.381 35.207,32.972 34.270 C 32.562 33.333,32.142 32.110,32.038 31.551 C 31.934 30.991,31.641 30.191,31.386 29.771 C 30.760 28.742,30.500 26.926,30.909 26.434 C 31.393 25.851,50.610 25.864,51.094 26.447 M119.622 57.702 C 113.779 58.267,114.088 66.587,119.979 67.323 C 123.064 67.709,127.419 66.094,128.440 64.188 C 128.986 63.168,128.822 58.682,128.215 58.030 C 127.665 57.440,123.842 57.294,119.622 57.702 M195.275 100.987 C 196.398 101.211,197.574 101.397,197.886 101.400 C 198.199 101.403,199.176 101.733,200.057 102.135 C 200.939 102.536,202.076 102.940,202.583 103.034 C 203.091 103.127,203.712 103.430,203.964 103.709 C 204.215 103.987,204.594 104.215,204.806 104.215 C 205.249 104.215,208.940 107.963,208.940 108.413 C 208.940 108.578,209.216 109.086,209.552 109.543 C 209.908 110.026,210.296 111.088,210.480 112.083 C 210.653 113.024,211.034 114.368,211.327 115.070 C 211.936 116.531,212.344 154.119,211.768 155.636 L 211.507 156.322 202.215 156.322 L 192.923 156.322 192.247 155.695 C 191.674 155.165,191.571 154.855,191.571 153.667 C 191.571 151.546,190.802 151.081,189.607 152.477 C 188.531 153.734,185.879 155.597,184.547 156.031 C 183.985 156.214,183.124 156.546,182.634 156.767 C 180.485 157.739,171.120 157.760,169.199 156.798 C 168.766 156.581,167.870 156.243,167.209 156.048 C 160.509 154.070,156.485 141.283,160.050 133.301 C 160.528 132.230,160.920 131.266,160.920 131.159 C 160.920 130.323,166.887 125.415,167.902 125.415 C 168.087 125.415,168.977 125.113,169.879 124.744 C 172.279 123.762,176.030 123.396,183.826 123.383 C 191.873 123.369,192.007 123.310,191.322 120.080 C 190.508 116.247,186.042 114.977,178.633 116.472 C 176.498 116.902,170.420 117.711,168.345 117.841 C 167.565 117.890,167.280 117.334,166.529 114.304 C 165.994 112.141,164.987 106.735,164.912 105.625 C 164.862 104.874,167.761 103.618,170.626 103.150 C 174.051 102.590,175.192 102.357,176.628 101.920 C 177.471 101.664,179.540 101.308,181.226 101.130 C 182.912 100.952,184.579 100.715,184.930 100.605 C 185.961 100.281,193.052 100.543,195.275 100.987 M263.878 100.627 C 264.639 100.761,266.173 101.002,267.286 101.164 C 270.761 101.666,275.639 104.921,276.402 107.246 C 276.570 107.756,276.934 108.611,277.212 109.147 C 277.491 109.684,277.822 111.055,277.951 112.212 C 278.080 113.362,278.308 115.396,278.459 116.731 C 278.615 118.119,278.780 126.811,278.844 137.052 L 278.955 154.947 278.268 155.634 L 277.580 156.322 268.321 156.322 L 259.063 156.322 258.650 155.692 C 258.282 155.131,258.238 153.445,258.238 140.117 C 258.238 123.031,257.988 120.876,255.956 120.392 C 255.595 120.306,255.168 120.133,255.007 120.007 C 254.601 119.688,251.979 119.687,251.139 120.004 C 250.758 120.147,250.131 120.334,249.745 120.418 C 248.741 120.637,244.893 124.005,244.523 124.989 C 244.300 125.580,244.214 129.778,244.203 140.566 C 244.194 150.230,244.098 155.504,243.925 155.828 C 243.670 156.303,243.288 156.322,233.866 156.322 L 224.072 156.322 223.781 155.619 C 223.331 154.533,223.504 102.320,223.959 101.865 C 224.216 101.607,226.421 101.515,233.791 101.454 C 245.073 101.361,244.189 101.084,244.189 104.714 C 244.189 107.698,244.619 108.206,246.129 107.003 C 246.678 106.566,247.471 106.031,247.893 105.814 C 248.314 105.598,248.716 105.337,248.787 105.235 C 248.857 105.133,249.391 104.808,249.973 104.513 C 250.556 104.217,251.188 103.822,251.378 103.633 C 251.568 103.444,252.356 103.089,253.129 102.844 C 253.902 102.598,254.994 102.191,255.556 101.938 C 256.117 101.686,257.783 101.281,259.257 101.040 C 260.731 100.798,261.986 100.552,262.045 100.492 C 262.195 100.342,262.307 100.350,263.878 100.627 M73.563 101.910 C 73.900 102.123,73.962 106.632,74.074 139.127 L 74.202 176.102 74.840 176.425 C 75.350 176.683,88.073 176.749,137.818 176.752 C 187.282 176.755,200.248 176.822,200.594 177.075 C 201.192 177.513,201.142 225.165,200.543 225.887 C 200.219 226.278,193.979 226.309,115.717 226.309 L 31.241 226.309 30.755 225.771 C 30.280 225.246,30.266 223.817,30.194 164.916 C 30.119 103.739,30.129 102.730,30.812 102.046 C 31.270 101.589,72.845 101.456,73.563 101.910 M115.307 102.061 C 116.108 102.862,116.975 104.645,117.351 106.264 C 117.562 107.174,117.954 108.378,118.221 108.940 C 118.489 109.502,118.788 110.411,118.888 110.960 C 118.987 111.510,119.404 112.589,119.815 113.359 C 120.226 114.129,120.562 114.969,120.562 115.226 C 120.562 115.483,120.866 116.358,121.237 117.170 C 121.609 117.982,122.079 119.451,122.282 120.434 C 122.485 121.418,122.754 122.347,122.880 122.500 C 123.006 122.652,123.390 123.801,123.734 125.054 C 124.078 126.306,124.593 127.963,124.879 128.736 C 125.164 129.508,125.402 130.451,125.407 130.831 C 125.416 131.585,125.901 132.822,126.188 132.822 C 126.413 132.822,127.203 130.784,127.203 130.204 C 127.203 129.967,127.419 129.389,127.682 128.919 C 127.946 128.450,128.352 127.211,128.585 126.166 C 128.818 125.121,129.224 123.806,129.486 123.244 C 129.749 122.682,130.093 121.660,130.252 120.972 C 130.411 120.284,130.763 119.411,131.034 119.030 C 131.305 118.650,131.648 117.796,131.797 117.132 C 131.945 116.469,132.352 115.364,132.700 114.677 C 133.048 113.989,133.333 113.095,133.333 112.690 C 133.333 111.810,133.714 110.547,134.348 109.323 C 134.603 108.831,134.892 107.912,134.990 107.280 C 135.149 106.253,135.410 105.577,136.839 102.490 L 137.223 101.660 146.879 101.660 C 152.190 101.660,156.717 101.730,156.940 101.815 C 157.544 102.047,157.472 104.128,156.823 105.193 C 156.538 105.660,156.147 106.650,155.953 107.392 C 155.760 108.135,155.381 109.189,155.110 109.735 C 154.840 110.281,154.474 111.418,154.297 112.261 C 154.120 113.103,153.772 114.147,153.522 114.580 C 153.273 115.013,152.927 115.818,152.753 116.368 C 152.579 116.919,152.171 117.783,151.846 118.290 C 151.521 118.796,151.084 119.787,150.875 120.492 C 150.665 121.197,150.328 122.104,150.124 122.509 C 149.921 122.913,149.548 124.020,149.297 124.968 C 149.045 125.916,148.764 126.692,148.672 126.692 C 148.474 126.692,148.004 128.004,147.758 129.246 C 147.660 129.738,147.322 130.715,147.007 131.418 C 146.692 132.120,146.351 133.155,146.251 133.716 C 146.150 134.278,145.840 135.128,145.563 135.604 C 145.285 136.081,144.901 137.071,144.710 137.804 C 144.519 138.538,144.136 139.585,143.859 140.131 C 143.581 140.677,143.215 141.796,143.046 142.617 C 142.876 143.439,142.531 144.473,142.278 144.916 C 142.025 145.359,141.675 146.181,141.500 146.743 C 141.324 147.305,140.964 148.074,140.700 148.451 C 140.435 148.828,139.946 149.920,139.612 150.877 C 138.235 154.826,137.920 155.645,137.645 155.975 C 137.411 156.257,135.357 156.322,126.648 156.322 C 113.916 156.322,114.566 156.453,114.039 153.768 C 113.943 153.276,113.604 152.299,113.287 151.596 C 112.970 150.894,112.627 149.917,112.526 149.425 C 112.424 148.934,112.006 147.813,111.598 146.934 C 111.190 146.056,110.856 145.204,110.856 145.041 C 110.856 144.878,110.561 144.241,110.200 143.626 C 109.840 143.011,109.370 141.909,109.157 141.177 C 108.943 140.446,108.626 139.617,108.452 139.336 C 108.278 139.055,107.981 138.250,107.793 137.548 C 107.605 136.845,107.187 135.754,106.864 135.121 C 106.540 134.489,106.143 133.340,105.980 132.567 C 105.817 131.794,105.487 130.760,105.245 130.268 C 105.003 129.777,104.656 128.799,104.473 128.097 C 104.290 127.395,103.938 126.475,103.691 126.054 C 103.443 125.632,103.042 124.487,102.799 123.509 C 102.555 122.530,102.161 121.381,101.921 120.954 C 101.681 120.528,101.405 119.751,101.307 119.228 C 101.209 118.706,100.858 117.956,100.526 117.561 C 100.194 117.167,99.799 116.388,99.647 115.830 C 99.495 115.271,99.133 114.373,98.843 113.834 C 98.552 113.294,98.196 112.202,98.052 111.407 C 97.908 110.612,97.563 109.572,97.286 109.096 C 97.009 108.619,96.617 107.596,96.415 106.822 C 96.214 106.047,95.856 105.121,95.622 104.762 C 95.219 104.148,95.095 102.413,95.416 101.893 C 95.697 101.439,114.847 101.601,115.307 102.061 M182.503 133.253 C 179.554 133.510,178.289 134.757,178.289 137.407 C 178.289 139.878,178.503 140.237,181.079 142.067 C 183.376 143.699,186.943 142.939,190.442 140.072 L 191.571 139.147 191.571 136.510 C 191.571 133.021,191.628 133.063,186.980 133.121 C 185.080 133.144,183.065 133.204,182.503 133.253 M323.562 175.096 C 325.502 175.343,327.005 175.675,327.521 175.969 C 327.978 176.230,328.755 176.517,329.246 176.607 C 329.738 176.696,330.767 177.168,331.534 177.657 C 332.300 178.145,333.058 178.544,333.218 178.544 C 333.378 178.544,333.728 178.786,333.996 179.081 C 334.263 179.376,334.804 179.785,335.198 179.989 C 335.885 180.344,336.988 181.196,337.461 181.737 C 338.217 182.600,338.784 183.350,339.241 184.088 C 339.527 184.551,339.859 184.930,339.978 184.930 C 340.098 184.930,340.260 185.134,340.340 185.384 C 340.419 185.634,340.887 186.464,341.379 187.228 C 341.871 187.991,342.273 188.833,342.273 189.099 C 342.273 189.364,342.560 190.152,342.911 190.850 C 343.548 192.119,343.975 194.513,344.615 200.414 C 345.042 204.354,344.050 213.012,342.911 215.280 C 342.560 215.978,342.273 216.718,342.273 216.924 C 342.273 217.129,341.975 217.737,341.611 218.274 C 341.246 218.812,340.839 219.537,340.706 219.887 C 340.161 221.321,335.872 225.752,334.092 226.721 C 333.394 227.101,332.822 227.501,332.822 227.610 C 332.822 227.718,332.564 227.885,332.248 227.980 C 331.932 228.074,331.041 228.466,330.268 228.850 C 329.496 229.233,327.312 229.939,325.415 230.419 L 321.967 231.290 315.837 231.290 C 310.652 231.290,309.450 231.217,308.046 230.819 C 307.133 230.561,305.639 230.190,304.725 229.997 C 298.755 228.730,292.562 223.518,289.569 217.241 C 286.362 210.516,286.364 195.571,289.573 188.889 C 290.684 186.575,292.839 183.142,293.179 183.142 C 293.288 183.142,293.567 182.826,293.799 182.439 C 294.031 182.053,294.754 181.335,295.404 180.843 C 296.054 180.351,296.967 179.633,297.433 179.246 C 297.899 178.860,298.385 178.544,298.515 178.544 C 298.645 178.544,299.285 178.205,299.937 177.791 C 300.590 177.377,301.724 176.861,302.457 176.643 C 303.191 176.425,304.052 176.076,304.370 175.867 C 304.689 175.658,306.020 175.361,307.328 175.207 C 308.636 175.053,310.511 174.828,311.494 174.708 C 313.879 174.417,319.699 174.604,323.562 175.096 M241.265 176.114 C 241.795 176.660,242.284 177.538,242.531 178.385 C 242.752 179.145,243.153 180.021,243.423 180.332 C 243.693 180.643,244.093 181.546,244.313 182.339 C 244.533 183.132,244.880 184.081,245.084 184.449 C 245.288 184.817,245.618 185.736,245.817 186.492 C 246.017 187.248,246.464 188.442,246.813 189.144 C 247.161 189.847,247.520 190.918,247.611 191.525 C 247.702 192.132,247.951 192.894,248.163 193.219 C 248.376 193.543,248.733 194.541,248.958 195.436 C 249.182 196.330,249.570 197.471,249.821 197.969 C 250.072 198.468,250.460 199.790,250.684 200.907 C 251.374 204.362,251.231 204.082,252.172 203.814 C 253.183 203.526,253.529 203.089,253.732 201.847 C 253.817 201.323,254.177 200.559,254.531 200.150 C 254.885 199.741,255.300 198.937,255.452 198.362 C 255.605 197.788,255.940 196.973,256.196 196.552 C 256.452 196.130,256.832 194.960,257.039 193.951 C 257.247 192.941,257.589 191.771,257.799 191.349 C 258.010 190.927,258.325 189.971,258.500 189.225 C 258.674 188.478,259.084 187.120,259.411 186.207 C 259.737 185.294,260.140 183.742,260.307 182.759 C 260.474 181.775,260.811 180.502,261.056 179.930 C 261.301 179.358,261.648 178.236,261.826 177.437 C 262.317 175.245,261.781 175.362,271.750 175.267 C 283.590 175.155,283.974 175.209,283.555 176.906 C 282.640 180.604,282.204 182.156,281.747 183.336 C 281.460 184.075,281.226 184.937,281.226 185.252 C 281.226 185.566,280.900 186.513,280.502 187.356 C 280.103 188.199,279.699 189.384,279.603 189.988 C 279.506 190.593,279.203 191.570,278.929 192.160 C 278.655 192.749,278.267 193.942,278.067 194.810 C 277.867 195.678,277.471 196.885,277.187 197.492 C 276.903 198.099,276.526 199.170,276.350 199.872 C 276.173 200.575,275.881 201.381,275.700 201.663 C 275.520 201.946,275.137 202.938,274.850 203.868 C 274.563 204.797,274.162 205.696,273.959 205.865 C 273.756 206.033,273.453 206.593,273.286 207.109 C 273.120 207.624,272.722 208.506,272.402 209.068 C 272.083 209.630,271.624 210.808,271.382 211.686 C 271.140 212.564,270.858 213.282,270.755 213.282 C 270.652 213.282,270.362 213.943,270.111 214.751 C 269.860 215.559,269.448 216.485,269.197 216.810 C 268.945 217.135,268.602 217.817,268.434 218.326 C 268.266 218.834,267.800 219.769,267.398 220.403 C 266.996 221.037,266.667 221.656,266.667 221.779 C 266.667 221.902,266.322 222.504,265.900 223.116 C 265.479 223.729,265.134 224.335,265.134 224.464 C 265.134 224.593,264.891 224.975,264.593 225.312 C 264.296 225.650,263.775 226.328,263.436 226.820 C 262.294 228.478,261.572 229.430,260.460 230.746 C 259.850 231.467,258.962 232.630,258.485 233.330 C 257.374 234.964,255.780 236.555,254.369 237.437 C 253.274 238.123,252.086 239.054,250.830 240.211 C 250.479 240.534,249.904 240.947,249.553 241.128 C 248.813 241.509,247.874 242.196,246.530 243.338 C 245.473 244.236,242.240 245.974,241.622 245.976 C 241.404 245.976,241.117 246.081,240.983 246.208 C 240.529 246.642,238.811 247.510,238.407 247.510 C 238.186 247.510,237.414 247.817,236.691 248.193 C 234.207 249.485,231.454 249.078,231.426 247.413 C 231.421 247.150,231.088 246.285,230.684 245.491 C 230.281 244.697,229.871 243.648,229.774 243.160 C 229.540 241.985,229.101 240.868,228.873 240.868 C 228.772 240.868,228.536 240.380,228.349 239.783 C 228.161 239.186,227.683 238.065,227.286 237.292 C 226.087 234.956,226.238 233.615,227.778 232.902 C 228.445 232.593,229.049 232.270,229.119 232.184 C 229.189 232.097,230.505 231.407,232.043 230.650 C 235.082 229.152,236.780 228.088,237.856 227.005 C 238.236 226.622,238.667 226.309,238.813 226.309 C 239.271 226.309,239.117 223.807,238.598 222.787 C 238.332 222.266,237.930 221.216,237.705 220.455 C 237.479 219.693,237.138 218.831,236.947 218.539 C 236.755 218.247,236.402 217.331,236.162 216.503 C 235.922 215.676,235.559 214.745,235.355 214.435 C 235.152 214.125,234.810 213.197,234.596 212.372 C 234.381 211.547,233.984 210.667,233.715 210.416 C 233.445 210.165,233.108 209.529,232.965 209.003 C 232.822 208.477,232.458 207.588,232.157 207.029 C 231.855 206.470,231.434 205.321,231.220 204.475 C 231.006 203.629,230.682 202.708,230.499 202.427 C 230.316 202.146,229.990 201.237,229.774 200.408 C 229.558 199.579,229.203 198.627,228.984 198.294 C 228.594 197.697,227.549 194.802,226.570 191.604 C 226.296 190.709,225.903 189.719,225.697 189.405 C 225.491 189.090,225.126 188.156,224.885 187.328 C 224.645 186.501,224.292 185.585,224.101 185.293 C 223.910 185.000,223.576 184.165,223.359 183.435 C 223.143 182.705,222.683 181.693,222.338 181.185 C 221.994 180.677,221.711 180.103,221.711 179.910 C 221.711 179.718,221.470 179.047,221.175 178.419 C 219.677 175.232,219.424 175.309,231.503 175.260 L 240.400 175.223 241.265 176.114 M315.070 190.457 C 310.537 191.422,309.462 192.307,308.405 195.945 C 308.083 197.053,307.758 198.059,307.682 198.181 C 307.005 199.276,307.067 207.379,307.759 208.285 C 307.873 208.434,308.115 209.132,308.295 209.834 C 309.409 214.163,312.586 215.902,318.115 215.212 C 320.762 214.881,322.589 212.715,324.033 208.197 C 324.763 205.915,324.442 197.672,323.578 196.521 C 323.460 196.363,323.183 195.616,322.963 194.860 C 322.742 194.105,322.313 193.242,322.009 192.943 C 321.705 192.644,321.270 192.171,321.042 191.893 C 320.493 191.222,316.260 190.204,315.070 190.457 " stroke="none" fill="#fbfbfb" fill-rule="evenodd"></path></g></svg>