<svg id="svg" version="1.1" xmlns="http://www.w3.org/2000/svg" xmlns:xlink="http://www.w3.org/1999/xlink" width="400" height="285.07462686567163" viewBox="0, 0, 400,285.07462686567163"><g id="svgg"><path id="path0" d="M174.768 10.465 C 174.376 10.533,173.895 10.797,173.699 11.051 C 173.255 11.627,173.179 74.852,173.622 75.552 C 173.861 75.930,183.006 75.997,252.186 76.123 C 329.275 76.263,330.487 76.274,330.885 76.819 C 331.231 77.291,331.290 83.919,331.290 122.086 L 331.290 166.800 332.040 167.085 C 332.943 167.428,385.079 167.332,385.772 166.986 C 386.186 166.779,386.245 159.762,386.435 89.015 L 386.642 11.273 386.020 10.768 C 385.432 10.292,177.478 9.994,174.768 10.465 " stroke="none" fill="#fa6a2f" fill-rule="evenodd"></path><path id="path1" d="M190.449 99.834 C 187.527 100.010,185.647 100.282,184.034 100.759 C 182.780 101.131,181.212 101.501,180.551 101.580 C 179.890 101.660,178.286 102.045,176.987 102.435 C 175.689 102.826,173.599 103.427,172.345 103.771 C 168.230 104.900,167.992 105.399,169.342 110.050 C 169.637 111.069,169.969 112.545,170.079 113.329 C 170.189 114.113,170.519 115.395,170.813 116.179 C 171.106 116.963,171.428 118.223,171.529 118.978 C 171.853 121.425,172.743 121.614,177.895 120.328 C 179.076 120.034,180.748 119.711,181.611 119.610 C 182.473 119.510,185.103 119.165,187.455 118.843 C 193.905 117.962,198.673 118.650,199.606 120.599 C 199.719 120.834,200.142 121.698,200.547 122.518 C 201.525 124.501,201.571 126.513,200.641 126.714 C 200.289 126.790,195.959 126.902,191.019 126.962 C 183.899 127.049,181.743 127.165,180.613 127.519 C 179.829 127.765,178.418 128.117,177.477 128.303 C 176.536 128.488,175.381 128.872,174.911 129.157 C 174.440 129.441,173.542 129.767,172.915 129.880 C 169.940 130.416,166.195 133.563,164.449 136.992 C 164.129 137.619,163.678 138.349,163.445 138.614 C 161.791 140.497,161.051 149.269,162.181 153.592 C 162.518 154.881,162.794 156.136,162.794 156.380 C 162.794 159.677,170.198 167.356,173.377 167.356 C 173.632 167.356,174.466 167.644,175.231 167.997 C 176.531 168.597,177.003 168.638,182.466 168.635 L 188.311 168.631 190.306 167.761 C 193.526 166.357,195.997 164.828,198.678 162.579 C 200.988 160.640,201.109 160.699,201.283 163.844 C 201.370 165.413,201.578 166.599,201.817 166.886 C 202.398 167.584,224.657 167.604,225.354 166.908 C 226.521 165.740,225.867 118.675,224.643 115.752 C 224.347 115.046,223.980 113.889,223.827 113.181 C 223.146 110.034,221.513 107.433,219.244 105.886 C 218.696 105.511,217.847 104.916,217.359 104.563 C 214.856 102.752,212.987 101.658,211.832 101.329 C 211.126 101.128,210.005 100.764,209.341 100.520 C 207.004 99.662,198.461 99.352,190.449 99.834 M281.112 100.061 C 279.577 100.289,277.554 101.157,274.127 103.058 C 273.186 103.580,272.031 104.192,271.561 104.418 C 271.091 104.645,270.521 105.052,270.296 105.323 C 270.071 105.595,268.981 106.326,267.873 106.948 C 266.765 107.570,265.641 108.229,265.374 108.413 C 264.583 108.957,264.441 108.474,264.291 104.730 C 264.165 101.590,264.080 101.116,263.578 100.749 C 262.594 100.030,240.620 100.301,239.802 101.042 L 239.202 101.585 239.202 134.192 L 239.202 166.800 239.933 167.078 C 241.291 167.594,263.313 167.437,263.843 166.908 C 264.241 166.510,264.291 164.396,264.291 147.936 L 264.291 129.412 265.645 127.954 C 269.561 123.737,274.035 122.232,278.117 123.759 C 281.296 124.948,281.385 125.626,281.392 148.737 L 281.397 166.468 282.031 166.912 C 282.891 167.514,304.921 167.587,305.737 166.990 C 306.478 166.448,306.339 116.512,305.592 114.869 C 305.336 114.305,304.924 112.956,304.678 111.871 C 304.250 109.990,303.303 107.952,302.067 106.253 C 299.808 103.146,299.027 102.485,295.795 100.938 L 293.799 99.983 288.239 99.906 C 285.182 99.864,281.974 99.934,281.112 100.061 M85.627 100.920 C 84.410 101.423,84.499 102.836,85.942 105.916 C 87.716 109.703,88.058 110.570,88.247 111.761 C 88.360 112.466,88.693 113.658,88.987 114.408 C 89.282 115.159,89.522 115.998,89.522 116.272 C 89.522 116.547,89.776 117.270,90.086 117.878 C 90.397 118.486,90.787 119.444,90.954 120.005 C 91.121 120.567,91.505 121.540,91.807 122.167 C 92.753 124.133,94.084 127.380,94.084 127.721 C 94.084 128.011,95.068 130.280,96.255 132.728 C 96.487 133.205,96.916 134.488,97.208 135.579 C 97.734 137.538,98.376 139.605,98.978 141.269 C 99.148 141.739,99.537 142.830,99.843 143.692 C 100.148 144.555,100.722 145.966,101.117 146.828 C 101.512 147.691,102.071 148.909,102.359 149.537 C 102.647 150.164,102.974 151.062,103.086 151.532 C 103.197 152.003,103.516 152.842,103.794 153.398 C 104.072 153.954,104.496 155.108,104.737 155.964 C 105.988 160.401,106.367 161.578,106.778 162.293 C 107.026 162.722,107.413 163.697,107.639 164.458 C 107.865 165.220,108.366 166.183,108.751 166.599 L 109.452 167.356 122.451 167.356 L 135.450 167.356 136.099 166.707 C 136.481 166.325,136.953 165.241,137.246 164.075 C 137.520 162.984,137.874 161.936,138.032 161.746 C 138.291 161.434,138.818 160.086,140.185 156.237 C 140.436 155.531,140.863 154.633,141.133 154.241 C 141.404 153.849,141.720 153.090,141.836 152.555 C 141.952 152.019,142.353 151.006,142.727 150.303 C 143.101 149.599,143.407 148.791,143.407 148.507 C 143.407 148.223,143.654 147.312,143.956 146.483 C 144.258 145.653,144.651 144.240,144.830 143.341 C 145.009 142.442,145.266 141.638,145.400 141.555 C 145.534 141.472,145.865 140.733,146.134 139.911 C 146.403 139.090,146.846 138.097,147.118 137.705 C 147.390 137.313,147.705 136.543,147.819 135.994 C 147.932 135.445,148.215 134.697,148.447 134.330 C 148.679 133.964,149.064 133.002,149.302 132.192 C 149.540 131.382,149.914 130.519,150.132 130.272 C 150.351 130.026,150.654 129.192,150.805 128.419 C 150.956 127.646,151.342 126.279,151.662 125.381 C 151.983 124.484,152.245 123.585,152.245 123.383 C 152.245 123.182,152.550 122.441,152.923 121.737 C 153.296 121.032,153.694 120.026,153.807 119.501 C 154.011 118.560,154.789 116.684,156.126 113.914 C 156.501 113.138,156.808 112.305,156.809 112.061 C 156.811 111.817,157.128 110.976,157.513 110.192 C 157.899 109.408,158.219 108.638,158.223 108.480 C 158.228 108.322,158.534 107.616,158.903 106.911 C 159.787 105.224,160.360 102.276,159.953 101.515 C 159.494 100.658,158.634 100.603,147.113 100.697 C 134.960 100.796,135.120 100.766,134.573 103.025 C 134.281 104.229,134.143 104.630,132.990 107.627 C 132.627 108.567,132.113 109.979,131.846 110.763 C 131.580 111.547,131.107 112.830,130.796 113.614 C 130.213 115.085,129.477 117.732,128.619 121.454 C 128.347 122.630,127.920 123.913,127.669 124.305 C 127.418 124.697,127.068 125.715,126.891 126.566 C 126.714 127.418,126.453 128.256,126.311 128.427 C 125.852 128.980,124.069 134.191,123.859 135.593 C 123.723 136.496,123.415 137.173,122.940 137.613 C 121.595 138.860,121.470 138.682,120.499 134.141 C 119.537 129.647,118.550 126.420,117.133 123.142 C 116.687 122.110,116.322 121.047,116.322 120.778 C 116.322 120.510,116.081 119.815,115.787 119.233 C 115.492 118.651,115.159 117.726,115.046 117.177 C 114.934 116.629,114.598 115.756,114.300 115.239 C 114.002 114.721,113.683 113.759,113.591 113.100 C 113.418 111.857,112.361 108.000,111.584 105.773 C 109.648 100.228,111.233 100.797,97.522 100.724 C 91.319 100.692,85.966 100.780,85.627 100.920 M200.927 138.933 C 201.420 139.253,201.410 146.224,200.915 146.828 C 198.263 150.067,191.970 151.633,188.596 149.895 C 182.900 146.959,183.705 139.660,189.816 138.832 C 191.896 138.551,200.455 138.629,200.927 138.933 " stroke="none" fill="#00ccff" fill-rule="evenodd"></path><path id="path2" d="M9.309 101.283 L 8.607 101.924 8.421 175.953 L 8.236 249.981 8.885 250.436 C 9.658 250.977,211.108 251.152,212.526 250.613 L 213.257 250.335 213.257 221.691 L 213.257 193.047 212.624 192.603 C 212.054 192.204,204.349 192.160,136.359 192.160 C 61.107 192.160,60.724 192.157,60.157 191.589 C 59.591 191.024,59.587 190.639,59.587 146.667 C 59.587 118.282,59.486 102.127,59.308 101.793 C 58.708 100.674,57.987 100.641,33.616 100.641 L 10.010 100.641 9.309 101.283 " stroke="none" fill="#62db0c" fill-rule="evenodd"></path><path id="path3" d="M348.254 188.613 C 348.097 188.676,346.142 188.982,343.910 189.293 C 341.678 189.605,339.478 190.053,339.021 190.289 C 338.565 190.525,337.591 190.853,336.858 191.017 C 328.207 192.956,319.687 202.183,317.398 212.094 C 316.580 215.633,316.157 227.122,316.709 230.791 C 317.524 236.208,319.079 241.235,320.142 241.892 C 320.267 241.969,320.870 242.891,321.482 243.940 C 322.607 245.868,326.647 250.191,328.458 251.404 C 332.139 253.871,334.420 255.184,335.282 255.335 C 335.830 255.431,337.098 255.754,338.098 256.053 C 341.608 257.103,350.419 257.658,356.057 257.185 C 363.869 256.529,368.403 255.272,371.366 252.941 C 371.826 252.579,373.293 251.489,374.625 250.518 C 375.958 249.547,377.273 248.528,377.547 248.254 C 377.822 247.979,378.173 247.755,378.326 247.755 C 378.480 247.755,378.897 247.228,379.253 246.585 C 379.609 245.941,380.309 244.690,380.809 243.805 C 381.308 242.920,381.916 241.787,382.158 241.288 C 382.401 240.789,382.729 240.302,382.886 240.205 C 383.043 240.107,383.381 239.297,383.637 238.403 C 383.893 237.510,384.223 236.629,384.369 236.446 C 384.515 236.263,384.898 234.852,385.220 233.310 C 385.542 231.768,385.914 229.993,386.048 229.366 C 386.466 227.401,386.366 218.669,385.908 217.087 C 385.684 216.313,385.351 214.663,385.168 213.419 C 384.985 212.176,384.660 210.891,384.445 210.564 C 384.231 210.237,383.857 209.404,383.613 208.714 C 380.558 200.054,372.791 192.520,365.479 191.123 C 364.943 191.021,364.030 190.700,363.450 190.409 C 362.509 189.939,360.639 189.592,354.383 188.728 C 352.518 188.470,348.784 188.400,348.254 188.613 M236.541 190.354 C 236.257 190.638,236.311 192.006,236.619 192.316 C 236.917 192.618,238.468 197.186,238.775 198.670 C 238.884 199.193,239.345 200.329,239.800 201.194 C 240.255 202.059,240.627 203.002,240.627 203.291 C 240.627 203.579,240.754 203.893,240.909 203.989 C 241.063 204.085,241.386 204.837,241.625 205.661 C 241.865 206.484,242.642 208.306,243.352 209.709 C 244.062 211.112,244.819 213.029,245.034 213.970 C 245.515 216.078,246.162 218.046,247.050 220.100 C 247.423 220.962,247.817 221.989,247.925 222.381 C 248.033 222.773,248.324 223.402,248.570 223.778 C 249.111 224.606,250.219 227.189,250.773 228.913 C 250.995 229.604,251.754 231.341,252.459 232.772 C 253.165 234.204,253.742 235.587,253.742 235.846 C 253.742 236.454,255.664 242.332,255.997 242.740 C 256.136 242.911,256.453 243.741,256.702 244.584 C 256.951 245.427,257.285 246.275,257.445 246.468 C 258.251 247.439,258.873 250.083,258.441 250.699 C 257.568 251.946,253.810 255.064,252.308 255.787 C 242.490 260.517,242.059 260.918,244.015 263.493 C 244.480 264.105,245.634 267.450,246.327 270.195 C 246.494 270.854,246.751 271.469,246.900 271.561 C 247.207 271.751,249.465 276.281,249.465 276.708 C 249.465 278.739,251.926 279.616,254.241 278.411 C 255.876 277.559,258.471 276.413,259.431 276.119 C 259.816 276.001,261.092 275.280,262.266 274.517 C 263.441 273.754,264.558 273.129,264.748 273.129 C 265.505 273.129,268.595 271.443,270.175 270.169 C 277.329 264.397,279.273 262.617,283.108 258.327 C 285.607 255.532,286.529 254.330,286.529 253.868 C 286.529 253.685,286.882 253.073,287.313 252.507 C 289.792 249.255,292.504 245.151,292.511 244.641 C 292.516 244.270,293.829 241.273,294.582 239.914 C 295.385 238.466,296.965 234.972,297.225 234.070 C 297.338 233.678,297.590 233.165,297.784 232.929 C 298.448 232.128,299.913 228.800,300.216 227.405 C 300.382 226.640,300.665 225.742,300.845 225.409 C 301.025 225.076,301.330 224.163,301.523 223.378 C 301.912 221.799,302.765 219.563,303.804 217.391 C 304.486 215.966,305.034 214.530,305.815 212.117 C 306.043 211.411,306.470 210.378,306.763 209.820 C 307.055 209.262,307.380 208.300,307.484 207.682 C 307.588 207.063,307.913 205.788,308.206 204.847 C 308.499 203.906,308.825 202.623,308.930 201.996 C 309.035 201.368,309.353 200.470,309.635 200.000 C 309.918 199.530,310.341 198.375,310.575 197.434 C 310.809 196.493,311.339 194.831,311.753 193.741 C 313.204 189.921,313.958 190.128,298.932 190.227 L 286.960 190.306 286.338 191.875 C 285.995 192.737,285.508 194.637,285.255 196.096 C 285.002 197.555,284.562 199.287,284.276 199.945 C 283.671 201.340,282.744 204.076,281.989 206.700 C 281.695 207.719,281.131 209.387,280.735 210.406 C 280.339 211.426,279.794 212.901,279.525 213.685 C 279.256 214.469,278.742 215.752,278.382 216.536 C 278.023 217.320,277.383 219.116,276.961 220.527 C 275.811 224.376,275.680 224.654,274.828 225.095 C 273.845 225.603,273.565 225.325,273.136 223.409 C 272.967 222.655,272.639 221.672,272.409 221.225 C 272.178 220.779,271.846 219.749,271.672 218.936 C 271.498 218.124,271.127 217.059,270.848 216.570 C 270.569 216.081,270.254 215.167,270.148 214.540 C 269.874 212.927,268.623 209.031,267.983 207.797 C 267.686 207.225,267.321 206.263,267.172 205.659 C 266.904 204.573,265.876 201.918,264.870 199.715 C 263.918 197.629,263.102 195.456,262.676 193.870 C 262.444 193.008,261.925 191.821,261.523 191.233 L 260.792 190.164 248.761 190.164 C 242.145 190.164,236.645 190.249,236.541 190.354 M356.005 209.453 C 360.510 211.591,362.730 218.581,361.649 227.227 C 361.330 229.778,361.000 231.317,360.671 231.789 C 360.398 232.181,359.962 232.911,359.704 233.411 C 356.038 240.501,345.033 239.723,341.515 232.126 C 340.129 229.133,339.814 218.375,341.042 215.966 C 341.281 215.495,341.643 214.597,341.846 213.970 C 343.231 209.684,351.161 207.154,356.005 209.453 " stroke="none" fill="#ffc502" fill-rule="evenodd"></path><path id="path4" d="M115.182 9.111 C 114.006 9.233,111.953 9.605,110.620 9.939 C 109.287 10.272,107.812 10.545,107.341 10.545 C 106.871 10.546,105.588 10.854,104.490 11.231 C 103.393 11.607,101.532 12.056,100.356 12.228 C 97.250 12.682,93.192 13.608,92.862 13.938 C 92.519 14.281,92.883 16.043,94.783 23.236 C 95.156 24.647,95.547 26.427,95.651 27.192 C 96.058 30.174,97.214 30.417,104.571 29.066 C 107.938 28.447,117.912 28.000,120.663 28.345 C 123.526 28.704,125.245 30.568,125.517 33.609 C 125.755 36.270,125.971 36.208,116.536 36.210 C 112.106 36.211,107.712 36.342,106.771 36.502 C 105.830 36.661,103.818 36.971,102.299 37.190 C 98.331 37.761,95.166 39.419,90.185 43.536 C 89.462 44.133,88.097 46.617,88.097 47.335 C 88.097 47.606,87.782 48.518,87.396 49.360 C 86.060 52.278,85.897 62.043,87.130 65.360 C 87.348 65.948,87.722 66.974,87.962 67.641 C 89.703 72.492,92.298 74.862,97.371 76.232 C 98.308 76.485,99.779 76.890,100.641 77.133 C 103.546 77.951,111.209 77.793,113.391 76.871 C 114.367 76.460,115.470 76.123,115.843 76.123 C 116.823 76.123,120.220 74.242,121.708 72.875 C 122.410 72.231,123.356 71.359,123.810 70.937 C 125.254 69.600,125.720 70.289,125.727 73.765 C 125.730 75.769,125.752 75.833,126.515 76.046 C 128.026 76.468,149.536 76.311,150.063 75.874 C 150.847 75.223,150.774 32.640,149.983 29.116 C 149.679 27.764,149.354 26.069,149.260 25.351 C 149.166 24.632,148.837 23.574,148.529 23.000 C 148.221 22.425,147.969 21.794,147.969 21.597 C 147.969 21.280,146.803 19.470,145.536 17.819 C 145.295 17.505,144.592 16.481,143.972 15.543 C 142.866 13.867,139.883 12.013,138.242 11.983 C 137.989 11.978,137.467 11.727,137.083 11.425 C 134.682 9.536,122.984 8.300,115.182 9.111 M9.460 10.716 C 8.743 11.218,8.803 11.880,9.681 13.125 C 9.961 13.522,10.328 14.485,10.495 15.263 C 11.106 18.095,14.996 28.964,15.707 29.824 C 15.951 30.119,16.325 31.100,17.544 34.640 C 17.814 35.424,18.273 36.707,18.564 37.491 C 18.855 38.275,19.220 39.591,19.376 40.416 C 19.531 41.241,19.910 42.396,20.217 42.982 C 21.139 44.741,22.192 47.138,22.377 47.897 C 22.559 48.646,23.561 51.046,24.700 53.461 C 25.071 54.247,25.374 55.107,25.374 55.371 C 25.374 55.953,26.928 60.936,27.666 62.723 C 27.957 63.428,28.275 64.326,28.372 64.718 C 28.533 65.368,29.737 68.078,30.652 69.850 C 30.854 70.242,31.169 71.120,31.351 71.801 C 32.615 76.522,31.972 76.332,46.837 76.374 C 59.452 76.410,60.489 76.313,60.907 75.066 C 61.001 74.785,61.448 73.738,61.900 72.741 C 62.353 71.743,62.723 70.741,62.723 70.513 C 62.723 70.286,63.088 69.306,63.534 68.336 C 65.082 64.974,65.571 63.714,65.864 62.337 C 66.027 61.576,66.333 60.614,66.545 60.199 C 66.757 59.784,67.068 58.803,67.237 58.019 C 67.406 57.234,67.807 56.085,68.127 55.464 C 68.448 54.842,68.710 54.102,68.710 53.819 C 68.710 53.535,69.095 52.582,69.565 51.701 C 70.036 50.819,70.421 49.927,70.421 49.717 C 70.421 49.508,70.677 48.917,70.990 48.403 C 71.303 47.890,71.559 47.270,71.560 47.027 C 71.560 46.783,71.882 45.940,72.273 45.154 C 72.918 43.860,73.409 42.301,74.506 38.061 C 74.709 37.277,75.090 36.307,75.354 35.906 C 75.617 35.504,76.013 34.606,76.235 33.910 C 76.456 33.214,77.109 31.554,77.685 30.221 C 78.261 28.888,78.964 27.156,79.246 26.372 C 79.529 25.588,79.951 24.433,80.183 23.806 C 80.415 23.179,80.957 21.511,81.388 20.100 C 81.818 18.689,82.424 16.892,82.735 16.108 C 83.046 15.324,83.432 14.235,83.593 13.687 C 83.754 13.139,84.063 12.437,84.281 12.126 C 85.510 10.372,84.434 10.224,71.183 10.323 C 61.555 10.395,59.886 10.469,59.304 10.856 C 58.638 11.298,58.074 13.041,56.890 18.312 C 56.689 19.211,56.319 20.257,56.070 20.638 C 55.821 21.018,55.465 21.951,55.279 22.711 C 55.093 23.470,54.719 24.540,54.447 25.089 C 54.176 25.638,53.859 26.536,53.742 27.085 C 53.625 27.634,53.308 28.532,53.037 29.081 C 52.765 29.629,52.391 30.700,52.205 31.459 C 52.019 32.219,51.691 33.117,51.476 33.455 C 51.262 33.793,50.931 34.840,50.742 35.780 C 50.553 36.721,50.235 37.812,50.035 38.204 C 49.835 38.596,49.523 39.872,49.343 41.039 C 49.163 42.207,48.867 43.340,48.686 43.558 C 48.505 43.777,48.148 44.810,47.894 45.855 C 47.198 48.708,46.342 48.205,45.055 44.191 C 44.728 43.172,44.220 41.696,43.925 40.912 C 43.630 40.128,43.257 38.845,43.096 38.061 C 42.306 34.226,41.596 31.850,40.199 28.368 C 39.696 27.113,39.104 25.445,38.884 24.661 C 38.480 23.221,37.808 21.397,36.625 18.532 C 36.269 17.669,35.886 16.386,35.774 15.681 C 35.472 13.784,34.522 11.331,33.868 10.763 C 33.033 10.037,10.491 9.994,9.460 10.716 M125.283 48.345 C 125.631 48.694,125.731 49.438,125.731 51.697 C 125.731 56.138,125.337 56.956,122.594 58.213 C 121.889 58.537,121.074 59.010,120.783 59.265 C 120.354 59.641,119.572 59.729,116.649 59.729 L 113.043 59.729 111.840 58.762 C 107.634 55.379,108.793 49.377,113.899 48.105 C 115.501 47.707,124.841 47.903,125.283 48.345 " stroke="none" fill="#cc0099" fill-rule="evenodd"></path><path id="path5" d="M0.000 142.552 L 0.000 285.103 200.000 285.103 L 400.000 285.103 400.000 142.552 L 400.000 0.000 200.000 0.000 L 0.000 0.000 0.000 142.552 M132.982 9.971 C 134.853 10.469,136.699 11.123,137.083 11.425 C 137.467 11.727,137.989 11.978,138.242 11.983 C 139.883 12.013,142.866 13.867,143.972 15.543 C 144.592 16.481,145.295 17.505,145.536 17.819 C 146.803 19.470,147.969 21.280,147.969 21.597 C 147.969 21.794,148.221 22.425,148.529 23.000 C 148.837 23.574,149.166 24.632,149.260 25.351 C 149.354 26.069,149.679 27.764,149.983 29.116 C 150.774 32.640,150.847 75.223,150.063 75.874 C 149.536 76.311,128.026 76.468,126.515 76.046 C 125.752 75.833,125.730 75.769,125.727 73.765 C 125.720 70.289,125.254 69.600,123.810 70.937 C 123.356 71.359,122.410 72.231,121.708 72.875 C 120.220 74.242,116.823 76.123,115.843 76.123 C 115.470 76.123,114.367 76.460,113.391 76.871 C 111.209 77.793,103.546 77.951,100.641 77.133 C 99.779 76.890,98.308 76.485,97.371 76.232 C 92.298 74.862,89.703 72.492,87.962 67.641 C 87.722 66.974,87.348 65.948,87.130 65.360 C 85.897 62.043,86.060 52.278,87.396 49.360 C 87.782 48.518,88.097 47.606,88.097 47.335 C 88.097 46.617,89.462 44.133,90.185 43.536 C 95.166 39.419,98.331 37.761,102.299 37.190 C 103.818 36.971,105.830 36.661,106.771 36.502 C 107.712 36.342,112.106 36.211,116.536 36.210 C 125.971 36.208,125.755 36.270,125.517 33.609 C 125.245 30.568,123.526 28.704,120.663 28.345 C 117.912 28.000,107.938 28.447,104.571 29.066 C 97.214 30.417,96.058 30.174,95.651 27.192 C 95.547 26.427,95.156 24.647,94.783 23.236 C 92.883 16.043,92.519 14.281,92.862 13.938 C 93.192 13.608,97.250 12.682,100.356 12.228 C 101.532 12.056,103.393 11.607,104.490 11.231 C 105.588 10.854,106.871 10.546,107.341 10.545 C 107.812 10.545,109.287 10.272,110.620 9.939 C 116.386 8.497,127.494 8.513,132.982 9.971 M33.868 10.763 C 34.522 11.331,35.472 13.784,35.774 15.681 C 35.886 16.386,36.269 17.669,36.625 18.532 C 37.808 21.397,38.480 23.221,38.884 24.661 C 39.104 25.445,39.696 27.113,40.199 28.368 C 41.596 31.850,42.306 34.226,43.096 38.061 C 43.257 38.845,43.630 40.128,43.925 40.912 C 44.220 41.696,44.728 43.172,45.055 44.191 C 46.342 48.205,47.198 48.708,47.894 45.855 C 48.148 44.810,48.505 43.777,48.686 43.558 C 48.867 43.340,49.163 42.207,49.343 41.039 C 49.523 39.872,49.835 38.596,50.035 38.204 C 50.235 37.812,50.553 36.721,50.742 35.780 C 50.931 34.840,51.262 33.793,51.476 33.455 C 51.691 33.117,52.019 32.219,52.205 31.459 C 52.391 30.700,52.765 29.629,53.037 29.081 C 53.308 28.532,53.625 27.634,53.742 27.085 C 53.859 26.536,54.176 25.638,54.447 25.089 C 54.719 24.540,55.093 23.470,55.279 22.711 C 55.465 21.951,55.821 21.018,56.070 20.638 C 56.319 20.257,56.689 19.211,56.890 18.312 C 58.074 13.041,58.638 11.298,59.304 10.856 C 59.886 10.469,61.555 10.395,71.183 10.323 C 84.434 10.224,85.510 10.372,84.281 12.126 C 84.063 12.437,83.754 13.139,83.593 13.687 C 83.432 14.235,83.046 15.324,82.735 16.108 C 82.424 16.892,81.818 18.689,81.388 20.100 C 80.957 21.511,80.415 23.179,80.183 23.806 C 79.951 24.433,79.529 25.588,79.246 26.372 C 78.964 27.156,78.261 28.888,77.685 30.221 C 77.109 31.554,76.456 33.214,76.235 33.910 C 76.013 34.606,75.617 35.504,75.354 35.906 C 75.090 36.307,74.709 37.277,74.506 38.061 C 73.409 42.301,72.918 43.860,72.273 45.154 C 71.882 45.940,71.560 46.783,71.560 47.027 C 71.559 47.270,71.303 47.890,70.990 48.403 C 70.677 48.917,70.421 49.508,70.421 49.717 C 70.421 49.927,70.036 50.819,69.565 51.701 C 69.095 52.582,68.710 53.535,68.710 53.819 C 68.710 54.102,68.448 54.842,68.127 55.464 C 67.807 56.085,67.406 57.234,67.237 58.019 C 67.068 58.803,66.757 59.784,66.545 60.199 C 66.333 60.614,66.027 61.576,65.864 62.337 C 65.571 63.714,65.082 64.974,63.534 68.336 C 63.088 69.306,62.723 70.286,62.723 70.513 C 62.723 70.741,62.353 71.743,61.900 72.741 C 61.448 73.738,61.001 74.785,60.907 75.066 C 60.489 76.313,59.452 76.410,46.837 76.374 C 31.972 76.332,32.615 76.522,31.351 71.801 C 31.169 71.120,30.854 70.242,30.652 69.850 C 29.737 68.078,28.533 65.368,28.372 64.718 C 28.275 64.326,27.957 63.428,27.666 62.723 C 26.928 60.936,25.374 55.953,25.374 55.371 C 25.374 55.107,25.071 54.247,24.700 53.461 C 23.561 51.046,22.559 48.646,22.377 47.897 C 22.192 47.138,21.139 44.741,20.217 42.982 C 19.910 42.396,19.531 41.241,19.376 40.416 C 19.220 39.591,18.855 38.275,18.564 37.491 C 18.273 36.707,17.814 35.424,17.544 34.640 C 16.325 31.100,15.951 30.119,15.707 29.824 C 14.996 28.964,11.106 18.095,10.495 15.263 C 10.328 14.485,9.961 13.522,9.681 13.125 C 8.803 11.880,8.743 11.218,9.460 10.716 C 10.491 9.994,33.033 10.037,33.868 10.763 M386.020 10.768 L 386.642 11.273 386.435 89.015 C 386.245 159.762,386.186 166.779,385.772 166.986 C 385.079 167.332,332.943 167.428,332.040 167.085 L 331.290 166.800 331.290 122.086 C 331.290 83.919,331.231 77.291,330.885 76.819 C 330.487 76.274,329.275 76.263,252.186 76.123 C 183.006 75.997,173.861 75.930,173.622 75.552 C 173.179 74.852,173.255 11.627,173.699 11.051 C 174.265 10.318,170.629 10.343,280.439 10.303 C 380.442 10.266,385.426 10.288,386.020 10.768 M113.899 48.105 C 108.793 49.377,107.634 55.379,111.840 58.762 L 113.043 59.729 116.649 59.729 C 119.572 59.729,120.354 59.641,120.783 59.265 C 121.074 59.010,121.889 58.537,122.594 58.213 C 125.337 56.956,125.731 56.138,125.731 51.697 C 125.731 47.692,126.050 47.890,119.652 47.930 C 116.801 47.949,114.212 48.027,113.899 48.105 M203.638 99.790 C 206.294 99.959,208.626 100.258,209.341 100.520 C 210.005 100.764,211.126 101.128,211.832 101.329 C 212.987 101.658,214.856 102.752,217.359 104.563 C 217.847 104.916,218.696 105.511,219.244 105.886 C 221.513 107.433,223.146 110.034,223.827 113.181 C 223.980 113.889,224.347 115.046,224.643 115.752 C 225.867 118.675,226.521 165.740,225.354 166.908 C 224.657 167.604,202.398 167.584,201.817 166.886 C 201.578 166.599,201.370 165.413,201.283 163.844 C 201.109 160.699,200.988 160.640,198.678 162.579 C 195.997 164.828,193.526 166.357,190.306 167.761 L 188.311 168.631 182.466 168.635 C 177.003 168.638,176.531 168.597,175.231 167.997 C 174.466 167.644,173.632 167.356,173.377 167.356 C 170.198 167.356,162.794 159.677,162.794 156.380 C 162.794 156.136,162.518 154.881,162.181 153.592 C 161.051 149.269,161.791 140.497,163.445 138.614 C 163.678 138.349,164.129 137.619,164.449 136.992 C 166.195 133.563,169.940 130.416,172.915 129.880 C 173.542 129.767,174.440 129.441,174.911 129.157 C 175.381 128.872,176.536 128.488,177.477 128.303 C 178.418 128.117,179.829 127.765,180.613 127.519 C 181.743 127.165,183.899 127.049,191.019 126.962 C 195.959 126.902,200.289 126.790,200.641 126.714 C 201.571 126.513,201.525 124.501,200.547 122.518 C 200.142 121.698,199.719 120.834,199.606 120.599 C 198.673 118.650,193.905 117.962,187.455 118.843 C 185.103 119.165,182.473 119.510,181.611 119.610 C 180.748 119.711,179.076 120.034,177.895 120.328 C 172.743 121.614,171.853 121.425,171.529 118.978 C 171.428 118.223,171.106 116.963,170.813 116.179 C 170.519 115.395,170.189 114.113,170.079 113.329 C 169.969 112.545,169.637 111.069,169.342 110.050 C 167.992 105.399,168.230 104.900,172.345 103.771 C 173.599 103.427,175.689 102.826,176.987 102.435 C 178.286 102.045,179.890 101.660,180.551 101.580 C 181.212 101.501,182.780 101.131,184.034 100.759 C 187.598 99.703,195.868 99.294,203.638 99.790 M295.795 100.938 C 299.027 102.485,299.808 103.146,302.067 106.253 C 303.303 107.952,304.250 109.990,304.678 111.871 C 304.924 112.956,305.336 114.305,305.592 114.869 C 306.339 116.512,306.478 166.448,305.737 166.990 C 304.921 167.587,282.891 167.514,282.031 166.912 L 281.397 166.468 281.392 148.737 C 281.385 125.626,281.296 124.948,278.117 123.759 C 274.035 122.232,269.561 123.737,265.645 127.954 L 264.291 129.412 264.291 147.936 C 264.291 164.396,264.241 166.510,263.843 166.908 C 263.313 167.437,241.291 167.594,239.933 167.078 L 239.202 166.800 239.202 134.192 L 239.202 101.585 239.802 101.042 C 240.620 100.301,262.594 100.030,263.578 100.749 C 264.080 101.116,264.165 101.590,264.291 104.730 C 264.441 108.474,264.583 108.957,265.374 108.413 C 265.641 108.229,266.765 107.570,267.873 106.948 C 268.981 106.326,270.071 105.595,270.296 105.323 C 270.521 105.052,271.091 104.645,271.561 104.418 C 272.031 104.192,273.186 103.580,274.127 103.058 C 279.759 99.934,280.372 99.797,288.239 99.906 L 293.799 99.983 295.795 100.938 M58.125 100.957 C 59.646 101.487,59.587 99.631,59.587 146.667 C 59.587 190.639,59.591 191.024,60.157 191.589 C 60.724 192.157,61.107 192.160,136.359 192.160 C 204.349 192.160,212.054 192.204,212.624 192.603 L 213.257 193.047 213.257 221.691 L 213.257 250.335 212.526 250.613 C 211.108 251.152,9.658 250.977,8.885 250.436 L 8.236 249.981 8.421 175.953 L 8.607 101.924 9.309 101.283 L 10.010 100.641 33.616 100.641 C 50.115 100.641,57.493 100.736,58.125 100.957 M109.474 101.231 C 109.844 101.477,110.369 102.311,110.641 103.085 C 110.913 103.858,111.337 105.068,111.584 105.773 C 112.361 108.000,113.418 111.857,113.591 113.100 C 113.683 113.759,114.002 114.721,114.300 115.239 C 114.598 115.756,114.934 116.629,115.046 117.177 C 115.159 117.726,115.492 118.651,115.787 119.233 C 116.081 119.815,116.322 120.510,116.322 120.778 C 116.322 121.047,116.687 122.110,117.133 123.142 C 118.550 126.420,119.537 129.647,120.499 134.141 C 121.470 138.682,121.595 138.860,122.940 137.613 C 123.415 137.173,123.723 136.496,123.859 135.593 C 124.069 134.191,125.852 128.980,126.311 128.427 C 126.453 128.256,126.714 127.418,126.891 126.566 C 127.068 125.715,127.418 124.697,127.669 124.305 C 127.920 123.913,128.347 122.630,128.619 121.454 C 129.477 117.732,130.213 115.085,130.796 113.614 C 131.107 112.830,131.580 111.547,131.846 110.763 C 132.113 109.979,132.627 108.567,132.990 107.627 C 134.143 104.630,134.281 104.229,134.573 103.025 C 135.120 100.766,134.960 100.796,147.113 100.697 C 158.634 100.603,159.494 100.658,159.953 101.515 C 160.360 102.276,159.787 105.224,158.903 106.911 C 158.534 107.616,158.228 108.322,158.223 108.480 C 158.219 108.638,157.899 109.408,157.513 110.192 C 157.128 110.976,156.811 111.817,156.809 112.061 C 156.808 112.305,156.501 113.138,156.126 113.914 C 154.789 116.684,154.011 118.560,153.807 119.501 C 153.694 120.026,153.296 121.032,152.923 121.737 C 152.550 122.441,152.245 123.182,152.245 123.383 C 152.245 123.585,151.983 124.484,151.662 125.381 C 151.342 126.279,150.956 127.646,150.805 128.419 C 150.654 129.192,150.351 130.026,150.132 130.272 C 149.914 130.519,149.540 131.382,149.302 132.192 C 149.064 133.002,148.679 133.964,148.447 134.330 C 148.215 134.697,147.932 135.445,147.819 135.994 C 147.705 136.543,147.390 137.313,147.118 137.705 C 146.846 138.097,146.403 139.090,146.134 139.911 C 145.865 140.733,145.534 141.472,145.400 141.555 C 145.266 141.638,145.009 142.442,144.830 143.341 C 144.651 144.240,144.258 145.653,143.956 146.483 C 143.654 147.312,143.407 148.223,143.407 148.507 C 143.407 148.791,143.101 149.599,142.727 150.303 C 142.353 151.006,141.952 152.019,141.836 152.555 C 141.720 153.090,141.404 153.849,141.133 154.241 C 140.863 154.633,140.436 155.531,140.185 156.237 C 138.818 160.086,138.291 161.434,138.032 161.746 C 137.874 161.936,137.520 162.984,137.246 164.075 C 136.953 165.241,136.481 166.325,136.099 166.707 L 135.450 167.356 122.451 167.356 L 109.452 167.356 108.751 166.599 C 108.366 166.183,107.865 165.220,107.639 164.458 C 107.413 163.697,107.026 162.722,106.778 162.293 C 106.367 161.578,105.988 160.401,104.737 155.964 C 104.496 155.108,104.072 153.954,103.794 153.398 C 103.516 152.842,103.197 152.003,103.086 151.532 C 102.974 151.062,102.647 150.164,102.359 149.537 C 102.071 148.909,101.512 147.691,101.117 146.828 C 100.722 145.966,100.148 144.555,99.843 143.692 C 99.537 142.830,99.148 141.739,98.978 141.269 C 98.376 139.605,97.734 137.538,97.208 135.579 C 96.916 134.488,96.487 133.205,96.255 132.728 C 95.068 130.280,94.084 128.011,94.084 127.721 C 94.084 127.380,92.753 124.133,91.807 122.167 C 91.505 121.540,91.121 120.567,90.954 120.005 C 90.787 119.444,90.397 118.486,90.086 117.878 C 89.776 117.270,89.522 116.547,89.522 116.272 C 89.522 115.998,89.282 115.159,88.987 114.408 C 88.693 113.658,88.360 112.466,88.247 111.761 C 88.058 110.570,87.716 109.703,85.942 105.916 C 84.499 102.836,84.410 101.423,85.627 100.920 C 86.804 100.433,108.703 100.719,109.474 101.231 M189.816 138.832 C 186.113 139.334,184.161 142.239,185.005 145.995 C 186.266 151.605,196.562 152.144,200.915 146.828 C 201.410 146.224,201.420 139.253,200.927 138.933 C 200.455 138.629,191.896 138.551,189.816 138.832 M354.383 188.728 C 360.639 189.592,362.509 189.939,363.450 190.409 C 364.030 190.700,364.943 191.021,365.479 191.123 C 372.791 192.520,380.558 200.054,383.613 208.714 C 383.857 209.404,384.231 210.237,384.445 210.564 C 384.660 210.891,384.985 212.176,385.168 213.419 C 385.351 214.663,385.684 216.313,385.908 217.087 C 386.366 218.669,386.466 227.401,386.048 229.366 C 385.914 229.993,385.542 231.768,385.220 233.310 C 384.898 234.852,384.515 236.263,384.369 236.446 C 384.223 236.629,383.893 237.510,383.637 238.403 C 383.381 239.297,383.043 240.107,382.886 240.205 C 382.729 240.302,382.401 240.789,382.158 241.288 C 381.916 241.787,381.308 242.920,380.809 243.805 C 380.309 244.690,379.609 245.941,379.253 246.585 C 378.897 247.228,378.480 247.755,378.326 247.755 C 378.173 247.755,377.822 247.979,377.547 248.254 C 377.273 248.528,375.958 249.547,374.625 250.518 C 373.293 251.489,371.826 252.579,371.366 252.941 C 368.403 255.272,363.869 256.529,356.057 257.185 C 350.419 257.658,341.608 257.103,338.098 256.053 C 337.098 255.754,335.830 255.431,335.282 255.335 C 334.420 255.184,332.139 253.871,328.458 251.404 C 326.647 250.191,322.607 245.868,321.482 243.940 C 320.870 242.891,320.267 241.969,320.142 241.892 C 319.079 241.235,317.524 236.208,316.709 230.791 C 316.157 227.122,316.580 215.633,317.398 212.094 C 319.687 202.183,328.207 192.956,336.858 191.017 C 337.591 190.853,338.565 190.525,339.021 190.289 C 339.478 190.053,341.678 189.605,343.910 189.293 C 346.142 188.982,348.097 188.676,348.254 188.613 C 348.784 188.400,352.518 188.470,354.383 188.728 M261.523 191.233 C 261.925 191.821,262.444 193.008,262.676 193.870 C 263.102 195.456,263.918 197.629,264.870 199.715 C 265.876 201.918,266.904 204.573,267.172 205.659 C 267.321 206.263,267.686 207.225,267.983 207.797 C 268.623 209.031,269.874 212.927,270.148 214.540 C 270.254 215.167,270.569 216.081,270.848 216.570 C 271.127 217.059,271.498 218.124,271.672 218.936 C 271.846 219.749,272.178 220.779,272.409 221.225 C 272.639 221.672,272.967 222.655,273.136 223.409 C 273.565 225.325,273.845 225.603,274.828 225.095 C 275.680 224.654,275.811 224.376,276.961 220.527 C 277.383 219.116,278.023 217.320,278.382 216.536 C 278.742 215.752,279.256 214.469,279.525 213.685 C 279.794 212.901,280.339 211.426,280.735 210.406 C 281.131 209.387,281.695 207.719,281.989 206.700 C 282.744 204.076,283.671 201.340,284.276 199.945 C 284.562 199.287,285.002 197.555,285.255 196.096 C 285.508 194.637,285.995 192.737,286.338 191.875 L 286.960 190.306 298.932 190.227 C 313.958 190.128,313.204 189.921,311.753 193.741 C 311.339 194.831,310.809 196.493,310.575 197.434 C 310.341 198.375,309.918 199.530,309.635 200.000 C 309.353 200.470,309.035 201.368,308.930 201.996 C 308.825 202.623,308.499 203.906,308.206 204.847 C 307.913 205.788,307.588 207.063,307.484 207.682 C 307.380 208.300,307.055 209.262,306.763 209.820 C 306.470 210.378,306.043 211.411,305.815 212.117 C 305.034 214.530,304.486 215.966,303.804 217.391 C 302.765 219.563,301.912 221.799,301.523 223.378 C 301.330 224.163,301.025 225.076,300.845 225.409 C 300.665 225.742,300.382 226.640,300.216 227.405 C 299.913 228.800,298.448 232.128,297.784 232.929 C 297.590 233.165,297.338 233.678,297.225 234.070 C 296.965 234.972,295.385 238.466,294.582 239.914 C 293.829 241.273,292.516 244.270,292.511 244.641 C 292.504 245.151,289.792 249.255,287.313 252.507 C 286.882 253.073,286.529 253.685,286.529 253.868 C 286.529 254.330,285.607 255.532,283.108 258.327 C 279.273 262.617,277.329 264.397,270.175 270.169 C 268.595 271.443,265.505 273.129,264.748 273.129 C 264.558 273.129,263.441 273.754,262.266 274.517 C 261.092 275.280,259.816 276.001,259.431 276.119 C 258.471 276.413,255.876 277.559,254.241 278.411 C 251.926 279.616,249.465 278.739,249.465 276.708 C 249.465 276.281,247.207 271.751,246.900 271.561 C 246.751 271.469,246.494 270.854,246.327 270.195 C 245.634 267.450,244.480 264.105,244.015 263.493 C 242.059 260.918,242.490 260.517,252.308 255.787 C 253.810 255.064,257.568 251.946,258.441 250.699 C 258.873 250.083,258.251 247.439,257.445 246.468 C 257.285 246.275,256.951 245.427,256.702 244.584 C 256.453 243.741,256.136 242.911,255.997 242.740 C 255.664 242.332,253.742 236.454,253.742 235.846 C 253.742 235.587,253.165 234.204,252.459 232.772 C 251.754 231.341,250.995 229.604,250.773 228.913 C 250.219 227.189,249.111 224.606,248.570 223.778 C 248.324 223.402,248.033 222.773,247.925 222.381 C 247.817 221.989,247.423 220.962,247.050 220.100 C 246.162 218.046,245.515 216.078,245.034 213.970 C 244.819 213.029,244.062 211.112,243.352 209.709 C 242.642 208.306,241.865 206.484,241.625 205.661 C 241.386 204.837,241.063 204.085,240.909 203.989 C 240.754 203.893,240.627 203.579,240.627 203.291 C 240.627 203.002,240.255 202.059,239.800 201.194 C 239.345 200.329,238.884 199.193,238.775 198.670 C 238.468 197.186,236.917 192.618,236.619 192.316 C 236.311 192.006,236.257 190.638,236.541 190.354 C 236.645 190.249,242.145 190.164,248.761 190.164 L 260.792 190.164 261.523 191.233 M348.046 208.971 C 345.226 209.486,342.615 211.591,341.846 213.970 C 341.643 214.597,341.281 215.495,341.042 215.966 C 339.814 218.375,340.129 229.133,341.515 232.126 C 345.033 239.723,356.038 240.501,359.704 233.411 C 359.962 232.911,360.398 232.181,360.671 231.789 C 361.670 230.356,362.205 223.954,361.669 219.843 C 360.507 210.922,356.197 207.482,348.046 208.971 " stroke="none" fill="#ffffff" fill-rule="evenodd"></path></g></svg>